<?xml version="1.0" encoding="UTF-8" standalone="no"?>
<!-- Created with Inkscape (http://www.inkscape.org/) -->

<svg
   xmlns:dc="http://purl.org/dc/elements/1.1/"
   xmlns:cc="http://creativecommons.org/ns#"
   xmlns:rdf="http://www.w3.org/1999/02/22-rdf-syntax-ns#"
   xmlns:svg="http://www.w3.org/2000/svg"
   xmlns="http://www.w3.org/2000/svg"
   xmlns:xlink="http://www.w3.org/1999/xlink"
   xmlns:sodipodi="http://sodipodi.sourceforge.net/DTD/sodipodi-0.dtd"
   xmlns:inkscape="http://www.inkscape.org/namespaces/inkscape"
   width="320"
   height="32"
   id="svg2"
   version="1.1"
   inkscape:version="0.48.4 r9939"
   sodipodi:docname="fly.svg"
   inkscape:export-filename="/home/darko/Radovi/AppDev/Emacs/JS/Createjs/Emergency/assets/fly.png"
   inkscape:export-xdpi="90"
   inkscape:export-ydpi="90">
  <defs
     id="defs4">
    <linearGradient
       inkscape:collect="always"
       id="linearGradient3976">
      <stop
         style="stop-color:#fdd99b;stop-opacity:1;"
         offset="0"
         id="stop3978" />
      <stop
         style="stop-color:#fdd99b;stop-opacity:0;"
         offset="1"
         id="stop3980" />
    </linearGradient>
    <linearGradient
       inkscape:collect="always"
       id="linearGradient3964">
      <stop
         style="stop-color:#cccccf;stop-opacity:1;"
         offset="0"
         id="stop3966" />
      <stop
         style="stop-color:#cccccf;stop-opacity:0;"
         offset="1"
         id="stop3968" />
    </linearGradient>
    <linearGradient
       inkscape:collect="always"
       id="linearGradient3954">
      <stop
         style="stop-color:#cccccf;stop-opacity:1;"
         offset="0"
         id="stop3956" />
      <stop
         style="stop-color:#cccccf;stop-opacity:0;"
         offset="1"
         id="stop3958" />
    </linearGradient>
    <linearGradient
       inkscape:collect="always"
       id="linearGradient3932">
      <stop
         style="stop-color:#cccccf;stop-opacity:1;"
         offset="0"
         id="stop3934" />
      <stop
         style="stop-color:#cccccf;stop-opacity:0;"
         offset="1"
         id="stop3936" />
    </linearGradient>
    <linearGradient
       inkscape:collect="always"
       xlink:href="#linearGradient3932"
       id="linearGradient3938"
       x1="14.147501"
       y1="9.3946791"
       x2="17.070919"
       y2="12.311494"
       gradientUnits="userSpaceOnUse" />
    <linearGradient
       inkscape:collect="always"
       xlink:href="#linearGradient3954"
       id="linearGradient3960"
       x1="15.379573"
       y1="16.774282"
       x2="16.61701"
       y2="17.348808"
       gradientUnits="userSpaceOnUse" />
    <linearGradient
       inkscape:collect="always"
       xlink:href="#linearGradient3964"
       id="linearGradient3970"
       x1="14.849384"
       y1="22.47982"
       x2="18.214088"
       y2="25.264051"
       gradientUnits="userSpaceOnUse" />
    <linearGradient
       inkscape:collect="always"
       xlink:href="#linearGradient3976"
       id="linearGradient3982"
       x1="16.672951"
       y1="8.8201561"
       x2="13.722291"
       y2="5.0857477"
       gradientUnits="userSpaceOnUse"
       gradientTransform="matrix(0.90390197,0,0,1,1.2376778,0)" />
    <linearGradient
       inkscape:collect="always"
       xlink:href="#linearGradient3976"
       id="linearGradient3986"
       gradientUnits="userSpaceOnUse"
       gradientTransform="matrix(-0.90390197,0,0,1,31.657533,0.02209709)"
       x1="16.550718"
       y1="8.599185"
       x2="13.722291"
       y2="5.0857477" />
    <filter
       inkscape:collect="always"
       id="filter4002">
      <feGaussianBlur
         inkscape:collect="always"
         stdDeviation="0.035582057"
         id="feGaussianBlur4004" />
    </filter>
    <filter
       inkscape:collect="always"
       id="filter4018">
      <feGaussianBlur
         inkscape:collect="always"
         stdDeviation="0.053373085"
         id="feGaussianBlur4020" />
    </filter>
  </defs>
  <sodipodi:namedview
     id="base"
     pagecolor="#ffffff"
     bordercolor="#666666"
     borderopacity="1.0"
     inkscape:pageopacity="0.0"
     inkscape:pageshadow="2"
     inkscape:zoom="12.363655"
     inkscape:cx="26.228678"
     inkscape:cy="14.440145"
     inkscape:document-units="px"
     inkscape:current-layer="layer1"
     showgrid="true"
     inkscape:snap-global="false"
     inkscape:window-width="1366"
     inkscape:window-height="747"
     inkscape:window-x="0"
     inkscape:window-y="0"
     inkscape:window-maximized="1">
    <inkscape:grid
       type="xygrid"
       id="grid2985"
       empspacing="5"
       visible="true"
       enabled="true"
       snapvisiblegridlinesonly="true"
       spacingx="32px"
       spacingy="32px" />
  </sodipodi:namedview>
  <metadata
     id="metadata7">
    <rdf:RDF>
      <cc:Work
         rdf:about="">
        <dc:format>image/svg+xml</dc:format>
        <dc:type
           rdf:resource="http://purl.org/dc/dcmitype/StillImage" />
        <dc:title></dc:title>
      </cc:Work>
    </rdf:RDF>
  </metadata>
  <g
     inkscape:label="Fly Img"
     inkscape:groupmode="layer"
     id="layer1"
     transform="translate(0,-1020.3622)" />
  <g
     inkscape:groupmode="layer"
     id="layer2"
     inkscape:label="Drawing">
    <path
       style="opacity:1;fill:#333333;fill-opacity:1;stroke:none"
       d="m 12.601925,5.3111543 c 0.142832,1.1850554 -0.31976,2.7756215 0.04583,3.1412111 1.323009,1.3230093 1.69005,1.7870356 1.136487,1.7870356 -0.489909,0 -0.839378,-0.2838226 -1.775356,-1.9049836 -0.47126,-0.816247 -0.111176,-1.9871366 -0.111176,-3.0520829 0,-3.03569 -1.418563,-4.96317738 -0.892907,-4.96317738 0.224154,0 1.233866,1.97811938 1.597122,4.99199718 z"
       id="path3779"
       inkscape:connector-curvature="0"
       sodipodi:nodetypes="sssssss" />
    <g
       id="g4039">
      <path
         sodipodi:nodetypes="ssssss"
         inkscape:connector-curvature="0"
         id="path3788"
         d="m 11.126649,15.836467 c 0.278792,0.190202 0.409681,0.508385 -1.04137,2.164736 -0.5750341,0.656393 -1.970621,0.924589 -2.8039889,1.206017 -1.2727866,0.429819 -2.2736135,0.368466 -2.2716607,0.25354 0.00424,-0.249573 4.0851408,-1.223425 4.6984612,-1.836745 0.5733374,-0.573337 1.2614404,-1.89474 1.4185584,-1.787548 z"
         style="fill:#333333;fill-opacity:1;stroke:none" />
      <g
         id="g3924">
        <path
           style="opacity:1;fill:#333333;fill-opacity:1;stroke:none"
           d="m 13.949607,14.663891 c 0.463125,0.463123 -1.246523,1.47558 -1.859514,1.576977 -0.61299,0.101397 -1.174662,-0.02903 -1.200011,-0.182273 -0.02535,-0.153247 0.451029,-0.437017 1.06402,-0.538414 0.61299,-0.101397 1.631554,-1.220242 1.995505,-0.85629 z"
           id="path3791"
           inkscape:connector-curvature="0"
           sodipodi:nodetypes="sssss" />
      </g>
    </g>
    <path
       style="fill:#333333;fill-opacity:1;stroke:none"
       d="m 19.806324,6.6872807 c 0.137267,1.9108655 -1.418496,2.0443081 -3.45567,2.0738066 -1.908361,0.027633 -3.45567,-0.6094277 -3.45567,-2.0738066 0,-1.3865015 1.547558,-2.0259154 3.45567,-2.0738065 1.893561,-0.047526 3.374808,0.9481479 3.45567,2.0738065 z"
       id="path3769"
       inkscape:connector-curvature="0"
       sodipodi:nodetypes="sssss" />
    <path
       style="fill:#333333;fill-opacity:1;stroke:none"
       d="m 17.339165,4.0704465 c 0,2.0290724 -0.540202,0.6493877 -0.98851,0.6493877 -0.448309,0 -0.811735,0.9333616 -0.811735,-0.6493877 0,-0.4116037 0.429717,-0.8703586 0.811735,-0.8703586 0.801861,0 0.98851,0.5272368 0.98851,0.8703586 z"
       id="path3774"
       inkscape:connector-curvature="0"
       sodipodi:nodetypes="sssss" />
    <path
       style="opacity:1;fill:#333333;fill-opacity:1;stroke:none"
       d="m 13.754015,8.5486917 5.159807,0 c 0.3878,0 0.749248,0.4038382 0.7,0.9 l -0.491985,4.9566003 c -0.04925,0.496162 -0.574611,1.854889 -0.962393,1.851172 l -3.421458,-0.0328 C 14.350204,16.219948 13.629312,15.098121 13.5788,14.602086 L 13.054015,9.4486917 c -0.05051,-0.4960347 0.3122,-0.9 0.7,-0.9 z"
       id="rect3782"
       inkscape:connector-curvature="0"
       sodipodi:nodetypes="sssssssss" />
    <path
       style="opacity:1;fill:#333333;fill-opacity:1;stroke:none"
       d="m 18.006669,16.125682 c 0.07189,0.212538 -0.115153,0.492287 -0.07203,0.775001 0.08167,0.53543 0.328952,1.081496 0.08794,1.20178 -0.660674,0.329727 -1.056802,0.830538 -1.655861,1.040316 -0.48654,0.170377 -0.909405,-0.621696 -1.553116,-0.908756 -0.284499,-0.126872 -0.09356,-0.712701 -0.03334,-1.273588 0.03565,-0.332059 -0.117619,-0.655376 -0.05349,-0.869542 0.931981,-1.908005 2.675909,-0.807811 3.279903,0.03479 z"
       id="path3785"
       inkscape:connector-curvature="0"
       sodipodi:nodetypes="cssssscc" />
    <path
       style="opacity:1;fill:#333333;fill-opacity:1;stroke:none"
       d="m 19.975767,21.967923 c 0,3.197417 -2.090204,6.938485 -3.469243,6.938485 -1.379039,0 -3.955379,-3.962039 -3.955379,-7.159456 0,-3.197418 2.708923,-3.402952 4.087962,-3.402952 1.379039,0 3.33666,0.426505 3.33666,3.623923 z"
       id="path3794"
       inkscape:connector-curvature="0"
       sodipodi:nodetypes="sssss" />
    <g
       id="g4052">
      <path
         sodipodi:nodetypes="sssss"
         inkscape:connector-curvature="0"
         id="path3797"
         d="m 11.467277,22.829669 c -0.112393,0.419457 0.870368,3.580418 -0.05779,3.580418 -0.256282,0 -0.408574,-2.669023 -0.464039,-3.533543 -0.110917,-1.728846 2.136625,-3.785043 2.807789,-3.689792 0.304127,0.04316 -2.122981,3.034664 -2.285962,3.642917 z"
         style="opacity:1;fill:#333333;fill-opacity:1;stroke:none" />
      <path
         transform="matrix(1.1598959,0.31076078,-0.27238962,1.3232889,6.0878396,-14.071164)"
         d="m 11.421875,29.632812 a 0.1875,2.3671875 0 1 1 -0.375,0 0.1875,2.3671875 0 1 1 0.375,0 z"
         sodipodi:ry="2.3671875"
         sodipodi:rx="0.1875"
         sodipodi:cy="29.632812"
         sodipodi:cx="11.234375"
         id="path3802"
         style="opacity:1;fill:#333333;fill-opacity:1;stroke:none"
         sodipodi:type="arc" />
    </g>
    <path
       style="opacity:0.75;fill:#aaaaaa;fill-opacity:1;stroke:none"
       d="m 14.227569,24.650807 c -0.856932,1.190183 -5.5080056,6.80001 -7.3255818,5.958142 -1.8175761,-0.841868 -1.1852511,-3.519992 0.6531729,-7.831795 3.8263379,-8.974221 6.2400239,-9.050914 7.6871269,-6.952386 1.13713,1.649016 1.724136,5.022078 -1.014718,8.826039 z"
       id="path3804"
       inkscape:connector-curvature="0"
       sodipodi:nodetypes="sssss" />
    <path
       style="fill:url(#linearGradient3938);fill-opacity:1;stroke:none;opacity:1"
       d="m 16.661204,10.985671 c -0.974489,0.562621 -1.252938,3.380853 -1.856155,3.380853 -0.408861,0 -0.883884,-2.193757 -0.972273,-2.806329 -0.207399,-1.437377 0.437903,-2.5411663 1.414214,-2.5411663 1.550835,0 2.671911,1.2405103 1.414214,1.9666423 z"
       id="path3929"
       inkscape:connector-curvature="0"
       sodipodi:nodetypes="sssss" />
    <path
       style="opacity:0.7;fill:#cccccf;fill-opacity:1;stroke:none"
       d="m 19.083122,12.945242 c -0.101711,1.032001 -0.482512,1.993017 -0.787773,2.033865 -0.298465,0.03994 -0.03017,-0.748718 0.26046,-1.977374 0.289341,-1.223247 -0.325293,-2.414103 -0.02279,-2.421661 0.302172,-0.0076 0.673393,1.114229 0.550104,2.36517 z"
       id="path3940"
       inkscape:connector-curvature="0"
       sodipodi:nodetypes="sssss" />
    <path
       style="opacity:0.69999999999999996;fill:url(#linearGradient3960);fill-opacity:1;stroke:none"
       d="m 16.661204,16.841398 c 0,0.256281 -0.564922,0.618719 -1.016466,0.618719 -0.451544,0 -0.552427,-0.406632 -0.552427,-0.662913 0,-0.256282 0.343951,-0.220971 0.795495,-0.220971 0.451544,0 0.773398,0.0089 0.773398,0.265165 z"
       id="path3943"
       inkscape:connector-curvature="0"
       sodipodi:nodetypes="sssss" />
    <path
       sodipodi:nodetypes="sssss"
       inkscape:connector-curvature="0"
       id="path3962"
       d="m 18.415363,23.903678 c -1.217995,1.217995 -2.029606,2.286798 -1.977415,3.382944 0.03087,0.648433 -1.51358,-1.595629 -1.349749,-3.242579 0.16383,-1.646951 1.440804,-1.603694 2.085516,-1.527774 0.644712,0.07592 1.957846,0.671212 1.241648,1.387409 z"
       style="fill:url(#linearGradient3970);fill-opacity:1;stroke:none" />
    <path
       sodipodi:nodetypes="sssssss"
       inkscape:connector-curvature="0"
       id="path4037"
       d="m 19.998354,5.3111543 c -0.142832,1.1850554 0.31976,2.7756215 -0.04583,3.1412111 -1.323009,1.3230093 -1.69005,1.7870356 -1.136487,1.7870356 0.489909,0 0.839378,-0.2838226 1.775356,-1.9049836 0.47126,-0.816247 0.111176,-1.9871366 0.111176,-3.0520829 0,-3.03569 1.418563,-4.96317738 0.892907,-4.96317738 -0.224154,0 -1.233866,1.97811938 -1.597122,4.99199718 z"
       style="fill:#333333;fill-opacity:1;stroke:none" />
    <path
       sodipodi:nodetypes="ssssss"
       inkscape:connector-curvature="0"
       id="path3972"
       d="m 16.252923,6.7756484 c 0.06979,1.8091225 -0.426749,1.6481976 -1.462567,1.6761255 -0.97032,0.026162 -1.757061,-0.3560081 -1.896877,-1.6540284 -0.1404,-1.3034556 0.786868,-1.9180468 1.757062,-1.9633875 0.507165,-0.023702 1.088742,-0.3036798 1.40613,0.094352 0.285138,0.3575866 0.176796,1.3425985 0.196252,1.846938 z"
       style="fill:url(#linearGradient3982);fill-opacity:1;stroke:none;filter:url(#filter4018)" />
    <path
       style="fill:url(#linearGradient3986);fill-opacity:1;stroke:none;filter:url(#filter4002)"
       d="m 16.642288,6.7977455 c -0.06979,1.8091225 0.426749,1.6481976 1.462567,1.6761255 0.97032,0.026162 1.757061,-0.3560081 1.896877,-1.6540284 0.1404,-1.3034556 -0.786868,-1.9180468 -1.757062,-1.9633875 -0.507165,-0.023702 -1.088742,-0.3036798 -1.40613,0.094352 -0.285138,0.3575866 -0.176796,1.3425985 -0.196252,1.846938 z"
       id="path3984"
       inkscape:connector-curvature="0"
       sodipodi:nodetypes="ssssss" />
    <g
       id="g4044"
       transform="matrix(-1,0,0,1,32.94941,0)">
      <path
         style="fill:#333333;fill-opacity:1;stroke:none"
         d="m 11.126649,15.836467 c 0.278792,0.190202 0.409681,0.508385 -1.04137,2.164736 -0.5750341,0.656393 -1.970621,0.924589 -2.8039889,1.206017 -1.2727866,0.429819 -2.2736135,0.368466 -2.2716607,0.25354 0.00424,-0.249573 4.0851408,-1.223425 4.6984612,-1.836745 0.5733374,-0.573337 1.2614404,-1.89474 1.4185584,-1.787548 z"
         id="path4046"
         inkscape:connector-curvature="0"
         sodipodi:nodetypes="ssssss" />
      <g
         id="g4048">
        <path
           sodipodi:nodetypes="sssss"
           inkscape:connector-curvature="0"
           id="path4050"
           d="m 13.949607,14.663891 c 0.463125,0.463123 -1.246523,1.47558 -1.859514,1.576977 -0.61299,0.101397 -1.174662,-0.02903 -1.200011,-0.182273 -0.02535,-0.153247 0.451029,-0.437017 1.06402,-0.538414 0.61299,-0.101397 1.631554,-1.220242 1.995505,-0.85629 z"
           style="fill:#333333;fill-opacity:1;stroke:none" />
      </g>
    </g>
    <g
       id="g4056"
       transform="matrix(-1,0,0,1,32.366745,0)">
      <path
         style="fill:#333333;fill-opacity:1;stroke:none"
         d="m 11.467277,22.829669 c -0.112393,0.419457 0.870368,3.580418 -0.05779,3.580418 -0.256282,0 -0.408574,-2.669023 -0.464039,-3.533543 -0.110917,-1.728846 2.136625,-3.785043 2.807789,-3.689792 0.304127,0.04316 -2.122981,3.034664 -2.285962,3.642917 z"
         id="path4058"
         inkscape:connector-curvature="0"
         sodipodi:nodetypes="sssss" />
      <path
         sodipodi:type="arc"
         style="fill:#333333;fill-opacity:1;stroke:none"
         id="path4060"
         sodipodi:cx="11.234375"
         sodipodi:cy="29.632812"
         sodipodi:rx="0.1875"
         sodipodi:ry="2.3671875"
         d="m 11.421875,29.632812 c 0,1.307362 -0.08395,2.367188 -0.1875,2.367188 -0.103553,0 -0.1875,-1.059826 -0.1875,-2.367188 0,-1.307361 0.08395,-2.367187 0.1875,-2.367187 0.103553,0 0.1875,1.059826 0.1875,2.367187 z"
         transform="matrix(1.1598959,0.31076078,-0.27238962,1.3232889,6.0878396,-14.071164)" />
    </g>
    <path
       sodipodi:nodetypes="sssss"
       inkscape:connector-curvature="0"
       id="path4035"
       d="m 17.958122,24.650807 c 0.856932,1.190183 5.508005,6.80001 7.325582,5.958142 1.817576,-0.841868 1.185251,-3.519992 -0.653173,-7.831795 -3.826338,-8.974221 -6.240024,-9.050914 -7.687127,-6.952386 -1.13713,1.649016 -1.724136,5.022078 1.014718,8.826039 z"
       style="opacity:0.75;fill:#aaaaaa;fill-opacity:1;stroke:none" />
    <path
       sodipodi:nodetypes="sssssss"
       inkscape:connector-curvature="0"
       id="path4062"
       d="m 12.601925,5.3111543 c 0.142832,1.1850554 -0.31976,2.7756215 0.04583,3.1412111 1.323009,1.3230093 1.69005,1.7870356 1.136487,1.7870356 -0.489909,0 -0.839378,-0.2838226 -1.775356,-1.9049836 -0.47126,-0.816247 -0.111176,-1.9871366 -0.111176,-3.0520829 0,-3.03569 -1.418563,-4.96317738 -0.892907,-4.96317738 0.224154,0 1.233866,1.97811938 1.597122,4.99199718 z"
       style="opacity:1;fill:#333333;fill-opacity:1;stroke:none" />
    <g
       id="g4064">
      <path
         style="fill:#333333;fill-opacity:1;stroke:none"
         d="m 11.126649,15.836467 c 0.278792,0.190202 0.409681,0.508385 -1.04137,2.164736 -0.5750341,0.656393 -1.970621,0.924589 -2.8039889,1.206017 -1.2727866,0.429819 -2.2736135,0.368466 -2.2716607,0.25354 0.00424,-0.249573 4.0851408,-1.223425 4.6984612,-1.836745 0.5733374,-0.573337 1.2614404,-1.89474 1.4185584,-1.787548 z"
         id="path4066"
         inkscape:connector-curvature="0"
         sodipodi:nodetypes="ssssss" />
      <g
         id="g4068">
        <path
           sodipodi:nodetypes="sssss"
           inkscape:connector-curvature="0"
           id="path4070"
           d="m 13.949607,14.663891 c 0.463125,0.463123 -1.246523,1.47558 -1.859514,1.576977 -0.61299,0.101397 -1.174662,-0.02903 -1.200011,-0.182273 -0.02535,-0.153247 0.451029,-0.437017 1.06402,-0.538414 0.61299,-0.101397 1.631554,-1.220242 1.995505,-0.85629 z"
           style="opacity:1;fill:#333333;fill-opacity:1;stroke:none" />
      </g>
    </g>
    <path
       sodipodi:nodetypes="sssss"
       inkscape:connector-curvature="0"
       id="path4072"
       d="m 19.806324,6.6872807 c 0.137267,1.9108655 -1.418496,2.0443081 -3.45567,2.0738066 -1.908361,0.027633 -3.45567,-0.6094277 -3.45567,-2.0738066 0,-1.3865015 1.547558,-2.0259154 3.45567,-2.0738065 1.893561,-0.047526 3.374808,0.9481479 3.45567,2.0738065 z"
       style="fill:#333333;fill-opacity:1;stroke:none" />
    <path
       sodipodi:nodetypes="sssss"
       inkscape:connector-curvature="0"
       id="path4074"
       d="m 17.339165,4.0704465 c 0,2.0290724 -0.540202,0.6493877 -0.98851,0.6493877 -0.448309,0 -0.811735,0.9333616 -0.811735,-0.6493877 0,-0.4116037 0.429717,-0.8703586 0.811735,-0.8703586 0.801861,0 0.98851,0.5272368 0.98851,0.8703586 z"
       style="fill:#333333;fill-opacity:1;stroke:none" />
    <path
       sodipodi:nodetypes="sssssssss"
       inkscape:connector-curvature="0"
       id="path4076"
       d="m 13.754015,8.5486917 5.159807,0 c 0.3878,0 0.749248,0.4038382 0.7,0.9 l -0.491985,4.9566003 c -0.04925,0.496162 -0.574611,1.854889 -0.962393,1.851172 l -3.421458,-0.0328 C 14.350204,16.219948 13.629312,15.098121 13.5788,14.602086 L 13.054015,9.4486917 c -0.05051,-0.4960347 0.3122,-0.9 0.7,-0.9 z"
       style="opacity:1;fill:#333333;fill-opacity:1;stroke:none" />
    <path
       sodipodi:nodetypes="cssssscc"
       inkscape:connector-curvature="0"
       id="path4078"
       d="m 18.006669,16.125682 c 0.07189,0.212538 -0.115153,0.492287 -0.07203,0.775001 0.08167,0.53543 0.328952,1.081496 0.08794,1.20178 -0.660674,0.329727 -1.056802,0.830538 -1.655861,1.040316 -0.48654,0.170377 -0.909405,-0.621696 -1.553116,-0.908756 -0.284499,-0.126872 -0.09356,-0.712701 -0.03334,-1.273588 0.03565,-0.332059 -0.117619,-0.655376 -0.05349,-0.869542 0.931981,-1.908005 2.675909,-0.807811 3.279903,0.03479 z"
       style="opacity:1;fill:#333333;fill-opacity:1;stroke:none" />
    <path
       sodipodi:nodetypes="sssss"
       inkscape:connector-curvature="0"
       id="path4080"
       d="m 19.975767,21.967923 c 0,3.197417 -2.090204,6.938485 -3.469243,6.938485 -1.379039,0 -3.955379,-3.962039 -3.955379,-7.159456 0,-3.197418 2.708923,-3.402952 4.087962,-3.402952 1.379039,0 3.33666,0.426505 3.33666,3.623923 z"
       style="opacity:1;fill:#333333;fill-opacity:1;stroke:none" />
    <g
       id="g4082">
      <path
         style="opacity:1;fill:#333333;fill-opacity:1;stroke:none"
         d="m 11.467277,22.829669 c -0.112393,0.419457 0.870368,3.580418 -0.05779,3.580418 -0.256282,0 -0.408574,-2.669023 -0.464039,-3.533543 -0.110917,-1.728846 2.136625,-3.785043 2.807789,-3.689792 0.304127,0.04316 -2.122981,3.034664 -2.285962,3.642917 z"
         id="path4084"
         inkscape:connector-curvature="0"
         sodipodi:nodetypes="sssss" />
      <path
         sodipodi:type="arc"
         style="opacity:1;fill:#333333;fill-opacity:1;stroke:none"
         id="path4086"
         sodipodi:cx="11.234375"
         sodipodi:cy="29.632812"
         sodipodi:rx="0.1875"
         sodipodi:ry="2.3671875"
         d="m 11.421875,29.632812 c 0,1.307362 -0.08395,2.367188 -0.1875,2.367188 -0.103553,0 -0.1875,-1.059826 -0.1875,-2.367188 0,-1.307361 0.08395,-2.367187 0.1875,-2.367187 0.103553,0 0.1875,1.059826 0.1875,2.367187 z"
         transform="matrix(1.1598959,0.31076078,-0.27238962,1.3232889,6.0878396,-14.071164)" />
    </g>
    <path
       sodipodi:nodetypes="sssss"
       inkscape:connector-curvature="0"
       id="path4088"
       d="m 14.227569,24.650807 c -0.856932,1.190183 -5.5080056,6.80001 -7.3255818,5.958142 -1.8175761,-0.841868 -1.1852511,-3.519992 0.6531729,-7.831795 3.8263379,-8.974221 6.2400239,-9.050914 7.6871269,-6.952386 1.13713,1.649016 1.724136,5.022078 -1.014718,8.826039 z"
       style="opacity:0.75;fill:#aaaaaa;fill-opacity:1;stroke:none" />
    <path
       sodipodi:nodetypes="sssss"
       inkscape:connector-curvature="0"
       id="path4090"
       d="m 16.661204,10.985671 c -0.974489,0.562621 -1.252938,3.380853 -1.856155,3.380853 -0.408861,0 -0.883884,-2.193757 -0.972273,-2.806329 -0.207399,-1.437377 0.437903,-2.5411663 1.414214,-2.5411663 1.550835,0 2.671911,1.2405103 1.414214,1.9666423 z"
       style="fill:url(#linearGradient3938);fill-opacity:1;stroke:none;opacity:1" />
    <path
       sodipodi:nodetypes="sssss"
       inkscape:connector-curvature="0"
       id="path4092"
       d="m 19.083122,12.945242 c -0.101711,1.032001 -0.482512,1.993017 -0.787773,2.033865 -0.298465,0.03994 -0.03017,-0.748718 0.26046,-1.977374 0.289341,-1.223247 -0.325293,-2.414103 -0.02279,-2.421661 0.302172,-0.0076 0.673393,1.114229 0.550104,2.36517 z"
       style="opacity:0.7;fill:#cccccf;fill-opacity:1;stroke:none" />
    <path
       sodipodi:nodetypes="sssss"
       inkscape:connector-curvature="0"
       id="path4094"
       d="m 16.661204,16.841398 c 0,0.256281 -0.564922,0.618719 -1.016466,0.618719 -0.451544,0 -0.552427,-0.406632 -0.552427,-0.662913 0,-0.256282 0.343951,-0.220971 0.795495,-0.220971 0.451544,0 0.773398,0.0089 0.773398,0.265165 z"
       style="opacity:0.69999999999999996;fill:url(#linearGradient3960);fill-opacity:1;stroke:none" />
    <path
       style="fill:url(#linearGradient3970);fill-opacity:1;stroke:none"
       d="m 18.415363,23.903678 c -1.217995,1.217995 -2.029606,2.286798 -1.977415,3.382944 0.03087,0.648433 -1.51358,-1.595629 -1.349749,-3.242579 0.16383,-1.646951 1.440804,-1.603694 2.085516,-1.527774 0.644712,0.07592 1.957846,0.671212 1.241648,1.387409 z"
       id="path4096"
       inkscape:connector-curvature="0"
       sodipodi:nodetypes="sssss" />
    <path
       style="fill:#333333;fill-opacity:1;stroke:none"
       d="m 19.998354,5.3111543 c -0.142832,1.1850554 0.31976,2.7756215 -0.04583,3.1412111 -1.323009,1.3230093 -1.69005,1.7870356 -1.136487,1.7870356 0.489909,0 0.839378,-0.2838226 1.775356,-1.9049836 0.47126,-0.816247 0.111176,-1.9871366 0.111176,-3.0520829 0,-3.03569 1.418563,-4.96317738 0.892907,-4.96317738 -0.224154,0 -1.233866,1.97811938 -1.597122,4.99199718 z"
       id="path4098"
       inkscape:connector-curvature="0"
       sodipodi:nodetypes="sssssss" />
    <path
       style="fill:url(#linearGradient3982);fill-opacity:1;stroke:none;filter:url(#filter4018)"
       d="m 16.252923,6.7756484 c 0.06979,1.8091225 -0.426749,1.6481976 -1.462567,1.6761255 -0.97032,0.026162 -1.757061,-0.3560081 -1.896877,-1.6540284 -0.1404,-1.3034556 0.786868,-1.9180468 1.757062,-1.9633875 0.507165,-0.023702 1.088742,-0.3036798 1.40613,0.094352 0.285138,0.3575866 0.176796,1.3425985 0.196252,1.846938 z"
       id="path4100"
       inkscape:connector-curvature="0"
       sodipodi:nodetypes="ssssss" />
    <path
       sodipodi:nodetypes="ssssss"
       inkscape:connector-curvature="0"
       id="path4102"
       d="m 16.642288,6.7977455 c -0.06979,1.8091225 0.426749,1.6481976 1.462567,1.6761255 0.97032,0.026162 1.757061,-0.3560081 1.896877,-1.6540284 0.1404,-1.3034556 -0.786868,-1.9180468 -1.757062,-1.9633875 -0.507165,-0.023702 -1.088742,-0.3036798 -1.40613,0.094352 -0.285138,0.3575866 -0.176796,1.3425985 -0.196252,1.846938 z"
       style="fill:url(#linearGradient3986);fill-opacity:1;stroke:none;filter:url(#filter4002)" />
    <g
       transform="matrix(-1,0,0,1,32.94941,0)"
       id="g4104">
      <path
         sodipodi:nodetypes="ssssss"
         inkscape:connector-curvature="0"
         id="path4106"
         d="m 11.126649,15.836467 c 0.278792,0.190202 0.409681,0.508385 -1.04137,2.164736 -0.5750341,0.656393 -1.970621,0.924589 -2.8039889,1.206017 -1.2727866,0.429819 -2.2736135,0.368466 -2.2716607,0.25354 0.00424,-0.249573 4.0851408,-1.223425 4.6984612,-1.836745 0.5733374,-0.573337 1.2614404,-1.89474 1.4185584,-1.787548 z"
         style="fill:#333333;fill-opacity:1;stroke:none" />
      <g
         id="g4108">
        <path
           style="fill:#333333;fill-opacity:1;stroke:none"
           d="m 13.949607,14.663891 c 0.463125,0.463123 -1.246523,1.47558 -1.859514,1.576977 -0.61299,0.101397 -1.174662,-0.02903 -1.200011,-0.182273 -0.02535,-0.153247 0.451029,-0.437017 1.06402,-0.538414 0.61299,-0.101397 1.631554,-1.220242 1.995505,-0.85629 z"
           id="path4110"
           inkscape:connector-curvature="0"
           sodipodi:nodetypes="sssss" />
      </g>
    </g>
    <g
       transform="matrix(-1,0,0,1,32.366745,0)"
       id="g4112">
      <path
         sodipodi:nodetypes="sssss"
         inkscape:connector-curvature="0"
         id="path4114"
         d="m 11.467277,22.829669 c -0.112393,0.419457 0.870368,3.580418 -0.05779,3.580418 -0.256282,0 -0.408574,-2.669023 -0.464039,-3.533543 -0.110917,-1.728846 2.136625,-3.785043 2.807789,-3.689792 0.304127,0.04316 -2.122981,3.034664 -2.285962,3.642917 z"
         style="fill:#333333;fill-opacity:1;stroke:none" />
      <path
         transform="matrix(1.1598959,0.31076078,-0.27238962,1.3232889,6.0878396,-14.071164)"
         d="m 11.421875,29.632812 c 0,1.307362 -0.08395,2.367188 -0.1875,2.367188 -0.103553,0 -0.1875,-1.059826 -0.1875,-2.367188 0,-1.307361 0.08395,-2.367187 0.1875,-2.367187 0.103553,0 0.1875,1.059826 0.1875,2.367187 z"
         sodipodi:ry="2.3671875"
         sodipodi:rx="0.1875"
         sodipodi:cy="29.632812"
         sodipodi:cx="11.234375"
         id="path4116"
         style="fill:#333333;fill-opacity:1;stroke:none"
         sodipodi:type="arc" />
    </g>
    <path
       style="opacity:0.75;fill:#aaaaaa;fill-opacity:1;stroke:none"
       d="m 17.958122,24.650807 c 0.856932,1.190183 5.508005,6.80001 7.325582,5.958142 1.817576,-0.841868 1.185251,-3.519992 -0.653173,-7.831795 -3.826338,-8.974221 -6.240024,-9.050914 -7.687127,-6.952386 -1.13713,1.649016 -1.724136,5.022078 1.014718,8.826039 z"
       id="path4118"
       inkscape:connector-curvature="0"
       sodipodi:nodetypes="sssss" />
  </g>
</svg>
