<?xml version="1.0" encoding="UTF-8" standalone="no"?>
<!-- Created with Inkscape (http://www.inkscape.org/) -->

<svg
   xmlns:dc="http://purl.org/dc/elements/1.1/"
   xmlns:cc="http://creativecommons.org/ns#"
   xmlns:rdf="http://www.w3.org/1999/02/22-rdf-syntax-ns#"
   xmlns:svg="http://www.w3.org/2000/svg"
   xmlns="http://www.w3.org/2000/svg"
   xmlns:sodipodi="http://sodipodi.sourceforge.net/DTD/sodipodi-0.dtd"
   xmlns:inkscape="http://www.inkscape.org/namespaces/inkscape"
   width="320"
   height="32"
   id="svg2"
   version="1.1"
   inkscape:version="0.48.4 r9939"
   sodipodi:docname="frog.svg"
   inkscape:export-filename="/home/darko/Radovi/AppDev/Emacs/JS/Createjs/Emergency/assets/frog.png"
   inkscape:export-xdpi="90"
   inkscape:export-ydpi="90">
  <defs
     id="defs4" />
  <sodipodi:namedview
     id="base"
     pagecolor="#ffffff"
     bordercolor="#666666"
     borderopacity="1.0"
     inkscape:pageopacity="0.0"
     inkscape:pageshadow="2"
     inkscape:zoom="9.1587302"
     inkscape:cx="26"
     inkscape:cy="13.5"
     inkscape:document-units="px"
     inkscape:current-layer="layer1"
     showgrid="true"
     inkscape:snap-global="false"
     inkscape:window-width="1366"
     inkscape:window-height="747"
     inkscape:window-x="0"
     inkscape:window-y="0"
     inkscape:window-maximized="1">
    <inkscape:grid
       type="xygrid"
       id="grid2985"
       empspacing="5"
       visible="true"
       enabled="true"
       snapvisiblegridlinesonly="true"
       spacingx="32px"
       spacingy="32px" />
  </sodipodi:namedview>
  <metadata
     id="metadata7">
    <rdf:RDF>
      <cc:Work
         rdf:about="">
        <dc:format>image/svg+xml</dc:format>
        <dc:type
           rdf:resource="http://purl.org/dc/dcmitype/StillImage" />
        <dc:title></dc:title>
      </cc:Work>
    </rdf:RDF>
  </metadata>
  <g
     inkscape:label="Layer 1"
     inkscape:groupmode="layer"
     id="layer1"
     transform="translate(0,-1020.3622)">
    <path
       sodipodi:nodetypes="sssss"
       inkscape:connector-curvature="0"
       id="path3813"
       d="m 22.16771,1044.9958 c -0.608922,0.1224 -9.219322,1.5489 -9.40548,1.0428 -0.18626,-0.506 8.122513,-2.7531 8.731234,-2.8754 0.609022,-0.1225 1.253609,0.1885 1.439867,0.6945 0.186161,0.5061 -0.156602,1.0156 -0.765621,1.1381 z"
       style="fill:#015a01;fill-opacity:1;stroke:none" />
    <path
       style="fill:#015a01;fill-opacity:1;stroke:none"
       d="m 23.417466,1043.6603 c -0.175883,0.5201 -2.972478,7.6057 -3.575547,7.2863 -0.602969,-0.3195 1.216097,-7.9232 1.392183,-8.4433 0.176083,-0.5201 0.807492,-0.6827 1.41036,-0.3632 0.602969,0.3195 0.949088,1.0002 0.773004,1.5202 z"
       id="path3815"
       inkscape:connector-curvature="0"
       sodipodi:nodetypes="sssss" />
    <path
       style="fill:#015a01;fill-opacity:1;stroke:none"
       d="m 24.640129,1042.5897 c 0.115603,0.5901 1.32963,8.8888 0.614516,8.9852 -0.714851,0.097 -3.088556,-8.0463 -3.204159,-8.6365 -0.115697,-0.5903 0.37027,-1.1468 1.085382,-1.2432 0.714951,-0.097 1.388664,0.3042 1.504261,0.8945 z"
       id="path3817"
       inkscape:connector-curvature="0"
       sodipodi:nodetypes="sssss" />
    <path
       style="fill:#000000;fill-opacity:1;stroke:none"
       d="m 10.048829,1033.546 10.968115,0 c 2.943783,0 5.602005,0.8561 5.313688,1.8601 l -1.877869,6.5393 c -0.288317,1.0041 -1.297093,1.7834 -4.24062,1.7522 l -10.163314,-0.108 c -2.9435272,-0.032 -6.2467939,-0.7269 -6.1184895,-1.7522 l 0.8048009,-6.4313 c 0.1283044,-1.0253 2.3699051,-1.8601 5.3136886,-1.8601 z"
       id="rect3018"
       inkscape:connector-curvature="0"
       sodipodi:nodetypes="sssssssss" />
    <path
       sodipodi:nodetypes="sssssssss"
       inkscape:connector-curvature="0"
       id="path3789"
       d="m 10.048829,1033.546 10.968115,0 c 2.943783,0 5.602005,0.8561 5.313688,1.8601 l -1.877869,6.5393 c -0.288317,1.0041 -1.297093,1.7834 -4.24062,1.7522 l -10.163314,-0.108 c -2.9435272,-0.032 -6.2467939,-0.7269 -6.1184895,-1.7522 l 0.8048009,-6.4313 c 0.1283044,-1.0253 2.3699051,-1.8601 5.3136886,-1.8601 z"
       style="opacity:0.5;fill:#015a01;fill-opacity:1;stroke:none" />
    <path
       sodipodi:nodetypes="sssscssssss"
       inkscape:connector-curvature="0"
       id="path3003"
       d="m 7.9060751,1026.0089 c 1.5978076,-1.1085 4.1435839,-1.126 5.3645219,0.3225 1.512225,1.794 6.829286,0.6509 7.91573,0.3542 2.004463,-0.5474 3.708216,-0.6797 4.457468,0.8466 0.373385,0.7606 1.333885,1.0162 1.210983,1.8861 l -1.158721,6.7783 c -0.174419,1.0204 -6.79055,1.7206 -8.023763,1.5811 l -11.5546176,-1.307 c -1.2339363,-0.1352 -1.8534086,-1.073 -1.9096609,-2.1024 l -0.31785,-5.8177 c -0.068339,-1.2508 2.309368,-1.3577 4.0159096,-2.5417 z"
       style="fill:#fb8b00;fill-opacity:1;stroke:none" />
    <path
       style="fill:#339900;fill-opacity:1;stroke:none"
       d="m 14.298423,1025.6082 c -0.03271,1.7079 -0.962563,3.5528 -4.5361578,2.43 -1.8683526,-0.5871 -3.8199233,-0.8267 -3.8199233,-2.6459 0,-2.2754 1.9681898,-3.7171 3.9392953,-3.5099 2.7239198,0.2864 4.4750968,0.6815 4.4167858,3.7258 z"
       id="path3013"
       inkscape:connector-curvature="0"
       sodipodi:nodetypes="sssss" />
    <path
       style="fill:#339900;fill-opacity:1;stroke:none"
       d="m 5.9250605,1024.5282 c 9.4709885,-1.8816 13.8690045,-1.8068 18.9107485,0.7673 2.774441,1.3576 2.176477,4.3641 2.050093,5.2339 l -0.789128,4.9424 c -0.163218,1.0221 -6.982871,1.7206 -8.251009,1.5811 l -11.881863,-1.307 c -1.2688833,-0.1352 -1.6419001,-1.1051 -1.9637455,-2.1024 l -1.6681868,-5.1698 c -0.4125403,-1.2784 1.2233868,-2.8727 3.5931023,-3.9455 z"
       id="rect2996"
       inkscape:connector-curvature="0"
       sodipodi:nodetypes="cccsssssc" />
    <path
       transform="matrix(1.1567997,0,0,1.2176169,-0.39876949,1008.2322)"
       d="m 7.3233962,17.118483 a 2.4411321,2.8636358 0 1 1 -4.8822641,0 2.4411321,2.8636358 0 1 1 4.8822641,0 z"
       sodipodi:ry="2.8636358"
       sodipodi:rx="2.4411321"
       sodipodi:cy="17.118483"
       sodipodi:cx="4.8822641"
       id="path3001"
       style="fill:#fb8b00;fill-opacity:1;stroke:none"
       sodipodi:type="arc" />
    <path
       sodipodi:type="arc"
       style="fill:#000000;fill-opacity:1;stroke:none"
       id="path2999"
       sodipodi:cx="4.8822641"
       sodipodi:cy="17.118483"
       sodipodi:rx="2.4411321"
       sodipodi:ry="2.8636358"
       d="m 7.3233962,17.118483 a 2.4411321,2.8636358 0 1 1 -4.8822641,0 2.4411321,2.8636358 0 1 1 4.8822641,0 z"
       transform="matrix(1.1567997,0,0,1.2176169,-0.61599266,1008.5752)" />
    <path
       sodipodi:nodetypes="sssss"
       inkscape:connector-curvature="0"
       id="path3016"
       d="m 17.550743,1026.0401 c 0.02948,1.7079 0.867343,3.5529 4.087428,2.43 1.683528,-0.5871 3.442043,-0.8267 3.442043,-2.6459 0,-2.2754 -1.77349,-3.7171 -3.549607,-3.5099 -2.454461,0.2864 -4.032407,0.6815 -3.979864,3.7258 z"
       style="fill:#339900;fill-opacity:1;stroke:none" />
    <path
       sodipodi:type="arc"
       style="fill:#fb8b00;fill-opacity:1;stroke:none"
       id="path3009"
       sodipodi:cx="4.8822641"
       sodipodi:cy="17.118483"
       sodipodi:rx="2.4411321"
       sodipodi:ry="2.8636358"
       d="m 7.3233962,17.118483 a 2.4411321,2.8636358 0 1 1 -4.8822641,0 2.4411321,2.8636358 0 1 1 4.8822641,0 z"
       transform="matrix(1.1588003,0,0,1.2176169,18.732031,1008.8522)" />
    <path
       transform="matrix(1.1588003,0,0,1.2176169,19.028331,1009.1952)"
       d="m 7.3233962,17.118483 a 2.4411321,2.8636358 0 1 1 -4.8822641,0 2.4411321,2.8636358 0 1 1 4.8822641,0 z"
       sodipodi:ry="2.8636358"
       sodipodi:rx="2.4411321"
       sodipodi:cy="17.118483"
       sodipodi:cx="4.8822641"
       id="path3011"
       style="fill:#000000;fill-opacity:1;stroke:none"
       sodipodi:type="arc" />
    <path
       sodipodi:type="arc"
       style="fill:#fb8b00;fill-opacity:1;stroke:none"
       id="path3791"
       sodipodi:cx="14.764007"
       sodipodi:cy="12.667758"
       sodipodi:rx="1.4565388"
       sodipodi:ry="1.4565388"
       d="m 16.220545,12.667758 a 1.4565388,1.4565388 0 1 1 -2.913077,0 1.4565388,1.4565388 0 1 1 2.913077,0 z"
       transform="matrix(0.80600803,-0.23692574,0.19075835,0.64894917,-4.0571859,1026.3856)" />
    <path
       transform="matrix(0.80036829,0.25532988,-0.20557626,0.6444084,9.0416581,1019.9339)"
       d="m 16.220545,12.667758 a 1.4565388,1.4565388 0 1 1 -2.913077,0 1.4565388,1.4565388 0 1 1 2.913077,0 z"
       sodipodi:ry="1.4565388"
       sodipodi:rx="1.4565388"
       sodipodi:cy="12.667758"
       sodipodi:cx="14.764007"
       id="path3801"
       style="fill:#fb8b00;fill-opacity:1;stroke:none"
       sodipodi:type="arc" />
    <path
       style="opacity:0.5;fill:#fdd99b;fill-opacity:1;stroke:none"
       d="m 16.205771,1032.9638 c -1.432609,1.155 -1.688222,2.8205 -2.964507,2.585 -1.19343,-0.2202 -0.942911,-1.781 -1.70708,-3.2389 -1.8461828,-3.5223 1.599114,-2.8586 2.96451,-2.5851 1.342392,0.269 5.921095,-0.1586 1.707077,3.239 z"
       id="path3798"
       inkscape:connector-curvature="0"
       sodipodi:nodetypes="sssss" />
    <path
       style="fill:#339900;fill-opacity:1;stroke:none"
       d="m 4.4456038,1035.6163 c 0.8064806,-0.6493 11.0656072,9.7102 11.0656072,9.7102 l -0.681201,2.5371 c 0,0 -10.3890095,-4.7223 -11.0656053,-5.843 -0.6131564,-1.0156 0.076524,-5.9174 0.6811991,-6.4043 z"
       id="rect3803"
       inkscape:connector-curvature="0"
       sodipodi:nodetypes="sccss" />
    <path
       style="fill:#339900;fill-opacity:1;stroke:none"
       d="m 14.140629,1045.9893 c -0.09126,0.4216 -1.72774,6.3243 -2.372616,6.351 -0.644957,0.026 -0.05393,-5.8329 0.03736,-6.2543 0.09126,-0.4216 0.688008,-0.7849 1.332865,-0.8116 0.644957,-0.026 1.093638,0.2933 1.002388,0.7149 z"
       id="path3806"
       inkscape:connector-curvature="0"
       sodipodi:nodetypes="sssss" />
    <path
       sodipodi:nodetypes="sssss"
       inkscape:connector-curvature="0"
       id="path3809"
       d="m 13.833403,1044.9722 c 0.472291,0.382 6.707754,5.8657 6.063201,6.1274 -0.644553,0.2616 -7.925046,-4.798 -8.397335,-5.1801 -0.472291,-0.3822 -0.332641,-0.904 0.31191,-1.1655 0.644555,-0.2616 1.549933,-0.164 2.022224,0.2182 z"
       style="fill:#339900;fill-opacity:1;stroke:none" />
    <path
       sodipodi:nodetypes="sssss"
       inkscape:connector-curvature="0"
       id="path3811"
       d="m 13.289952,1043.5851 c 0.693037,0.2135 10.233748,3.5024 9.981014,4.0496 -0.252006,0.5472 -10.20323,-1.8548 -10.896267,-2.0682 -0.693227,-0.2134 -1.050315,-0.8301 -0.797581,-1.3772 0.252007,-0.5474 1.019607,-0.8177 1.712834,-0.6042 z"
       style="fill:#339900;fill-opacity:1;stroke:none" />
  </g>
</svg>
