<?xml version="1.0" encoding="UTF-8" standalone="no"?>
<!-- Created with Inkscape (http://www.inkscape.org/) -->

<svg
   xmlns:dc="http://purl.org/dc/elements/1.1/"
   xmlns:cc="http://creativecommons.org/ns#"
   xmlns:rdf="http://www.w3.org/1999/02/22-rdf-syntax-ns#"
   xmlns:svg="http://www.w3.org/2000/svg"
   xmlns="http://www.w3.org/2000/svg"
   xmlns:xlink="http://www.w3.org/1999/xlink"
   xmlns:sodipodi="http://sodipodi.sourceforge.net/DTD/sodipodi-0.dtd"
   xmlns:inkscape="http://www.inkscape.org/namespaces/inkscape"
   width="320"
   height="32"
   id="svg2"
   version="1.1"
   inkscape:version="0.48.4 r9939"
   enable-background="new"
   sodipodi:docname="nanobot.svg"
   inkscape:export-filename="/home/darko/Radovi/AppDev/Emacs/JS/Createjs/Emergency/assets/nanobot.png"
   inkscape:export-xdpi="90"
   inkscape:export-ydpi="90">
  <defs
     id="defs4">
    <linearGradient
       id="linearGradient4068"
       inkscape:collect="always">
      <stop
         id="stop4070"
         offset="0"
         style="stop-color:#666666;stop-opacity:1" />
      <stop
         id="stop4072"
         offset="1"
         style="stop-color:#000000;stop-opacity:1" />
    </linearGradient>
    <linearGradient
       inkscape:collect="always"
       id="linearGradient4007">
      <stop
         style="stop-color:#666666;stop-opacity:1"
         offset="0"
         id="stop4009" />
      <stop
         style="stop-color:#333333;stop-opacity:0;"
         offset="1"
         id="stop4011" />
    </linearGradient>
    <linearGradient
       inkscape:collect="always"
       xlink:href="#linearGradient4007"
       id="linearGradient4013"
       x1="17.596188"
       y1="1021.4766"
       x2="15.258232"
       y2="1050.2704"
       gradientUnits="userSpaceOnUse" />
    <linearGradient
       inkscape:collect="always"
       xlink:href="#linearGradient4068"
       id="linearGradient4064"
       gradientUnits="userSpaceOnUse"
       x1="17.596188"
       y1="1021.4766"
       x2="15.258232"
       y2="1050.2704"
       gradientTransform="matrix(0.83522138,0,0,0.83522138,2.6682618,170.76776)" />
    <linearGradient
       inkscape:collect="always"
       xlink:href="#linearGradient4007"
       id="linearGradient4066"
       gradientUnits="userSpaceOnUse"
       x1="17.596188"
       y1="1021.4766"
       x2="15.258232"
       y2="1050.2704"
       gradientTransform="matrix(0.83522138,0,0,0.83522138,2.6682618,170.76776)" />
    <linearGradient
       inkscape:collect="always"
       xlink:href="#linearGradient4007"
       id="linearGradient4098"
       gradientUnits="userSpaceOnUse"
       gradientTransform="matrix(0.41761069,0.72332293,-0.72332293,0.41761069,791.0437,591.84452)"
       x1="17.596188"
       y1="1021.4766"
       x2="15.258232"
       y2="1050.2704" />
    <linearGradient
       inkscape:collect="always"
       xlink:href="#linearGradient4068"
       id="linearGradient4100"
       gradientUnits="userSpaceOnUse"
       gradientTransform="matrix(0.41761069,0.72332293,-0.72332293,0.41761069,791.0437,591.84452)"
       x1="17.596188"
       y1="1021.4766"
       x2="15.258232"
       y2="1050.2704" />
    <linearGradient
       inkscape:collect="always"
       xlink:href="#linearGradient4007"
       id="linearGradient4126"
       gradientUnits="userSpaceOnUse"
       gradientTransform="matrix(-0.41761069,0.72332293,-0.72332293,-0.41761069,836.5684,1457.1313)"
       x1="17.596188"
       y1="1021.4766"
       x2="15.258232"
       y2="1050.2704" />
    <linearGradient
       inkscape:collect="always"
       xlink:href="#linearGradient4068"
       id="linearGradient4128"
       gradientUnits="userSpaceOnUse"
       gradientTransform="matrix(-0.41761069,0.72332293,-0.72332293,-0.41761069,836.5684,1457.1313)"
       x1="17.596188"
       y1="1021.4766"
       x2="15.258232"
       y2="1050.2704" />
    <linearGradient
       inkscape:collect="always"
       xlink:href="#linearGradient4007"
       id="linearGradient4154"
       gradientUnits="userSpaceOnUse"
       gradientTransform="matrix(-0.83522138,0,0,-0.83522138,123.85275,1901.6917)"
       x1="17.596188"
       y1="1021.4766"
       x2="15.258232"
       y2="1050.2704" />
    <linearGradient
       inkscape:collect="always"
       xlink:href="#linearGradient4068"
       id="linearGradient4156"
       gradientUnits="userSpaceOnUse"
       gradientTransform="matrix(-0.83522138,0,0,-0.83522138,123.85275,1901.6917)"
       x1="17.596188"
       y1="1021.4766"
       x2="15.258232"
       y2="1050.2704" />
    <linearGradient
       inkscape:collect="always"
       xlink:href="#linearGradient4007"
       id="linearGradient4182"
       gradientUnits="userSpaceOnUse"
       gradientTransform="matrix(0.5905907,0.5905907,-0.5905907,0.5905907,650.73248,414.78709)"
       x1="17.596188"
       y1="1021.4766"
       x2="15.258232"
       y2="1050.2704" />
    <linearGradient
       inkscape:collect="always"
       xlink:href="#linearGradient4068"
       id="linearGradient4184"
       gradientUnits="userSpaceOnUse"
       gradientTransform="matrix(0.5905907,0.5905907,-0.5905907,0.5905907,650.73248,414.78709)"
       x1="17.596188"
       y1="1021.4766"
       x2="15.258232"
       y2="1050.2704" />
    <linearGradient
       inkscape:collect="always"
       xlink:href="#linearGradient4007"
       id="linearGradient4210"
       gradientUnits="userSpaceOnUse"
       gradientTransform="matrix(0,0.83522138,-0.83522138,0,945.73247,1022.6759)"
       x1="17.596188"
       y1="1021.4766"
       x2="15.258232"
       y2="1050.2704" />
    <linearGradient
       inkscape:collect="always"
       xlink:href="#linearGradient4068"
       id="linearGradient4212"
       gradientUnits="userSpaceOnUse"
       gradientTransform="matrix(0,0.83522138,-0.83522138,0,945.73247,1022.6759)"
       x1="17.596188"
       y1="1021.4766"
       x2="15.258232"
       y2="1050.2704" />
    <linearGradient
       inkscape:collect="always"
       xlink:href="#linearGradient4007"
       id="linearGradient4238"
       gradientUnits="userSpaceOnUse"
       gradientTransform="matrix(-0.5905907,0.5905907,-0.5905907,-0.5905907,733.77363,1638.6941)"
       x1="17.596188"
       y1="1021.4766"
       x2="15.258232"
       y2="1050.2704" />
    <linearGradient
       inkscape:collect="always"
       xlink:href="#linearGradient4068"
       id="linearGradient4240"
       gradientUnits="userSpaceOnUse"
       gradientTransform="matrix(-0.5905907,0.5905907,-0.5905907,-0.5905907,733.77363,1638.6941)"
       x1="17.596188"
       y1="1021.4766"
       x2="15.258232"
       y2="1050.2704" />
    <linearGradient
       inkscape:collect="always"
       xlink:href="#linearGradient4007"
       id="linearGradient4266"
       gradientUnits="userSpaceOnUse"
       gradientTransform="matrix(-0.83522138,0,0,-0.83522138,157.82266,1901.8444)"
       x1="17.596188"
       y1="1021.4766"
       x2="15.258232"
       y2="1050.2704" />
    <linearGradient
       inkscape:collect="always"
       xlink:href="#linearGradient4068"
       id="linearGradient4268"
       gradientUnits="userSpaceOnUse"
       gradientTransform="matrix(-0.83522138,0,0,-0.83522138,157.82266,1901.8444)"
       x1="17.596188"
       y1="1021.4766"
       x2="15.258232"
       y2="1050.2704" />
  </defs>
  <sodipodi:namedview
     id="base"
     pagecolor="#ffffff"
     bordercolor="#666666"
     borderopacity="1.0"
     inkscape:pageopacity="0.0"
     inkscape:pageshadow="2"
     inkscape:zoom="5.6568542"
     inkscape:cx="108.71424"
     inkscape:cy="12.959262"
     inkscape:document-units="px"
     inkscape:current-layer="layer1"
     showgrid="true"
     inkscape:snap-global="false"
     inkscape:window-width="1366"
     inkscape:window-height="747"
     inkscape:window-x="0"
     inkscape:window-y="0"
     inkscape:window-maximized="1">
    <inkscape:grid
       type="xygrid"
       id="grid2985"
       empspacing="5"
       visible="true"
       enabled="true"
       snapvisiblegridlinesonly="true"
       spacingx="32px"
       spacingy="32px" />
  </sodipodi:namedview>
  <metadata
     id="metadata7">
    <rdf:RDF>
      <cc:Work
         rdf:about="">
        <dc:format>image/svg+xml</dc:format>
        <dc:type
           rdf:resource="http://purl.org/dc/dcmitype/StillImage" />
        <dc:title></dc:title>
      </cc:Work>
    </rdf:RDF>
  </metadata>
  <g
     inkscape:groupmode="layer"
     id="layer2"
     inkscape:label="background"
     style="display:none"
     sodipodi:insensitive="true">
    <rect
       style="fill:#cccccf;fill-opacity:1;stroke:none"
       id="rect3783"
       width="32"
       height="32"
       x="0"
       y="0" />
  </g>
  <g
     inkscape:label="Layer 1"
     inkscape:groupmode="layer"
     id="layer1"
     transform="translate(0,-1020.3622)"
     style="display:inline">
    <path
       style="fill:#000000;fill-opacity:1;stroke:none"
       d="m 15.778725,1023.4058 c -2.433853,1.9525 -1.291858,11.3768 -0.875233,11.3768 0,-0.3777 -7.9182475,-2.9256 -10.4037778,0.3041 -0.4592539,0.5966 -0.6952305,1.7834 -0.2360566,2.4485 2.4369027,3.5292 10.4037504,0.3924 10.4037504,-0.3043 -0.05331,-0.017 -3.321596,9.6427 -0.875205,12.0853 0.747686,0.7466 2.11906,0.5213 2.892486,-0.09 2.468677,-1.9527 0.952924,-12.0852 0.875233,-12.0852 0.05104,0.2839 8.087843,3.1787 10.403723,-0.3043 0.414894,-0.624 0.683574,-1.7765 0.236139,-2.4483 -2.344567,-3.5202 -10.263422,-0.6065 -10.403749,0.3043 0.293094,0.1978 3.156426,-8.8525 0.875205,-11.377 -0.944824,-0.5609 -2.209293,-0.5588 -2.892515,0.091 z"
       id="rect3946"
       inkscape:connector-curvature="0"
       sodipodi:nodetypes="ccsscsscssccc" />
    <path
       sodipodi:nodetypes="sssss"
       inkscape:connector-curvature="0"
       id="path3960"
       d="m 6.931091,1034.1578 c -1.3607458,-0.068 -3.5880872,0.4789 -3.8987798,4.1312 -0.3106992,3.6522 3.0998671,8.1194 4.4604869,8.1884 1.3606909,0.068 2.0422521,-3.3328 2.352952,-6.9849 0.3106779,-3.652 -1.5540026,-5.2659 -2.9146591,-5.3347 z"
       style="opacity:0.75;fill:#ff00ff;fill-opacity:1;stroke:none" />
    <path
       style="opacity:0.75;fill:#ff00ff;fill-opacity:1;stroke:none"
       d="m 25.45493,1037.9513 c 1.360746,0.068 3.588088,-0.4789 3.898779,-4.1312 0.310699,-3.6521 -3.099866,-8.1194 -4.460485,-8.1884 -1.360691,-0.068 -2.042253,3.3328 -2.352953,6.985 -0.310677,3.652 1.554003,5.2659 2.914659,5.3346 z"
       id="path3962"
       inkscape:connector-curvature="0"
       sodipodi:nodetypes="sssss" />
    <path
       sodipodi:nodetypes="ccsscsscssccc"
       inkscape:connector-curvature="0"
       id="path3964"
       d="m 15.794982,1024.0346 c -1.84525,1.8579 -0.843821,10.8249 -0.843821,10.8249 0,0 -7.6340575,-2.1267 -10.030381,0.2893 -0.512322,0.5165 -0.7298951,1.7354 -0.2275844,2.3297 2.3494412,2.7797 10.0303544,-0.2894 10.0303544,-0.2894 0,0 -2.650649,9.3586 -0.843792,11.499 0.652871,0.7732 2.12192,0.5849 2.788672,-0.086 1.845206,-1.858 0.843821,-11.4989 0.843821,-11.4989 0,0 7.633992,2.1264 10.030328,-0.2895 0.512258,-0.5165 0.7299,-1.7353 0.227664,-2.3295 -2.34937,-2.7797 -10.030354,0.2894 -10.030354,0.2894 0,0 2.650618,-8.6845 0.843794,-10.8249 -0.910914,-0.5337 -2.13,-0.5317 -2.788701,0.086 z"
       style="fill:url(#linearGradient4066);fill-opacity:1;stroke:none" />
    <path
       style="opacity:0.81199999;fill:#339900;fill-opacity:1;stroke:none"
       d="m 18.300386,1027.9374 c -0.173984,2.0584 -1.002128,3.669 -1.849714,3.5974 -0.847585,-0.072 -1.393652,-1.7984 -1.219667,-3.8568 0.17399,-2.0585 1.002136,-3.669 1.849721,-3.5975 0.847586,0.072 1.393651,1.7984 1.21966,3.8569 z"
       id="path3980"
       inkscape:connector-curvature="0" />
    <path
       sodipodi:type="arc"
       style="opacity:0.6;fill:#339900;fill-opacity:1;stroke:none"
       id="path4018"
       sodipodi:cx="18.125"
       sodipodi:cy="25.6875"
       sodipodi:rx="3"
       sodipodi:ry="4.8125"
       d="m 21.125,25.6875 a 3,4.8125 0 1 1 -6,0 3,4.8125 0 1 1 6,0 z"
       transform="matrix(0.5895335,0.07442059,-0.08005355,0.83018383,6.6720663,1022.0898)" />
    <path
       sodipodi:nodetypes="ccsscsscssccc"
       inkscape:connector-curvature="0"
       id="path4020"
       d="m 15.778725,1023.4058 c -2.433853,1.9525 -1.291858,11.3768 -0.875233,11.3768 0,-0.3777 -7.9182475,-2.9256 -10.4037778,0.3041 -0.4592539,0.5966 -0.6952305,1.7834 -0.2360566,2.4485 2.4369027,3.5292 10.4037504,0.3924 10.4037504,-0.3043 -0.05331,-0.017 -3.321596,9.6427 -0.875205,12.0853 0.747686,0.7466 2.11906,0.5213 2.892486,-0.09 2.468677,-1.9527 0.952924,-12.0852 0.875233,-12.0852 0.05104,0.2839 8.087843,3.1787 10.403723,-0.3043 0.414894,-0.624 0.683574,-1.7765 0.236139,-2.4483 -2.344567,-3.5202 -10.263422,-0.6065 -10.403749,0.3043 0.293094,0.1978 3.156426,-8.8525 0.875205,-11.377 -0.944824,-0.5609 -2.209293,-0.5588 -2.892515,0.091 z"
       style="fill:#000000;fill-opacity:1;stroke:none" />
    <path
       sodipodi:nodetypes="sssss"
       inkscape:connector-curvature="0"
       id="path4024"
       d="m 25.45493,1037.9513 c 1.360746,0.068 3.588088,-0.4789 3.898779,-4.1312 0.310699,-3.6521 -3.099866,-8.1194 -4.460485,-8.1884 -1.360691,-0.068 -2.042253,3.3328 -2.352953,6.985 -0.310677,3.652 1.554003,5.2659 2.914659,5.3346 z"
       style="opacity:0.75;fill:#ff00ff;fill-opacity:1;stroke:none" />
    <path
       style="opacity:0.75;fill:#ff00ff;fill-opacity:1;stroke:none"
       d="m 6.931091,1034.1578 c -1.3607458,-0.068 -3.5880872,0.4789 -3.8987798,4.1312 -0.3106992,3.6522 3.0998671,8.1194 4.4604869,8.1884 1.3606909,0.068 2.0422521,-3.3328 2.352952,-6.9849 0.3106779,-3.652 -1.5540026,-5.2659 -2.9146591,-5.3347 z"
       id="path4022"
       inkscape:connector-curvature="0"
       sodipodi:nodetypes="sssss" />
    <path
       style="fill:url(#linearGradient4064);fill-opacity:1;stroke:none"
       d="m 15.794982,1024.0346 c -1.84525,1.8579 -0.843821,10.8249 -0.843821,10.8249 0,0 -7.6340575,-2.1267 -10.030381,0.2893 -0.512322,0.5165 -0.7298951,1.7354 -0.2275844,2.3297 2.3494412,2.7797 10.0303544,-0.2894 10.0303544,-0.2894 0,0 -2.650649,9.3586 -0.843792,11.499 0.652871,0.7732 2.12192,0.5849 2.788672,-0.086 1.845206,-1.858 0.843821,-11.4989 0.843821,-11.4989 0,0 7.633992,2.1264 10.030328,-0.2895 0.512258,-0.5165 0.7299,-1.7353 0.227664,-2.3295 -2.34937,-2.7797 -10.030354,0.2894 -10.030354,0.2894 0,0 2.650618,-8.6845 0.843794,-10.8249 -0.910914,-0.5337 -2.13,-0.5317 -2.788701,0.086 z"
       id="path4026"
       inkscape:connector-curvature="0"
       sodipodi:nodetypes="ccsscsscssccc" />
    <path
       inkscape:connector-curvature="0"
       id="path4028"
       d="m 18.300386,1027.9374 c -0.173984,2.0584 -1.002128,3.669 -1.849714,3.5974 -0.847585,-0.072 -1.393652,-1.7984 -1.219667,-3.8568 0.17399,-2.0585 1.002136,-3.669 1.849721,-3.5975 0.847586,0.072 1.393651,1.7984 1.21966,3.8569 z"
       style="opacity:0.81199999;fill:#339900;fill-opacity:1;stroke:none" />
    <path
       transform="matrix(0.5895335,0.07442059,-0.08005355,0.83018383,6.6720663,1022.0898)"
       d="m 21.125,25.6875 a 3,4.8125 0 1 1 -6,0 3,4.8125 0 1 1 6,0 z"
       sodipodi:ry="4.8125"
       sodipodi:rx="3"
       sodipodi:cy="25.6875"
       sodipodi:cx="18.125"
       id="path4030"
       style="opacity:0.6;fill:#339900;fill-opacity:1;stroke:none"
       sodipodi:type="arc" />
    <path
       sodipodi:nodetypes="ccsscsscssccc"
       inkscape:connector-curvature="0"
       id="path4158"
       d="m 57.096867,1026.9638 c -3.101661,-0.3404 -8.958119,7.1311 -8.663561,7.4256 0.267088,-0.267 -3.530285,-7.6677 -7.571627,-7.1416 -0.746465,0.098 -1.752619,0.7696 -1.898219,1.5645 -0.772378,4.2187 7.079065,7.6341 7.571694,7.1414 -0.02535,-0.049 -9.167134,4.4697 -9.164458,7.9267 7.96e-4,1.0567 1.129829,1.8671 2.108951,1.9817 3.1264,0.3649 9.21932,-7.8718 9.164449,-7.9266 -0.164664,0.2369 3.47126,7.9666 7.571721,7.1414 0.734531,-0.1481 1.739462,-0.7729 1.898153,-1.5643 0.831269,-4.147 -6.828456,-7.6861 -7.571695,-7.1413 0.06738,0.3471 8.491555,-4.0278 8.663601,-7.4259 -0.271543,-1.0648 -1.167077,-1.9574 -2.109658,-1.981 z"
       style="fill:#000000;fill-opacity:1;stroke:none" />
    <path
       style="opacity:0.75;fill:#ff00ff;fill-opacity:1;stroke:none"
       d="m 43.237769,1028.3103 c -0.914076,-1.0103 -2.875794,-2.1985 -5.678052,0.1644 -2.8022,2.3627 -3.549321,7.9332 -2.636025,8.9441 0.914077,1.0102 3.800774,-0.9125 6.60289,-3.2753 2.802059,-2.3626 2.624698,-4.8224 1.711187,-5.8332 z"
       id="path4160"
       inkscape:connector-curvature="0"
       sodipodi:nodetypes="sssss" />
    <path
       sodipodi:nodetypes="sssss"
       inkscape:connector-curvature="0"
       id="path4162"
       d="m 53.653756,1044.0911 c 0.914077,1.0103 2.87572,2.1984 5.677978,-0.1644 2.802142,-2.3627 3.549394,-7.9332 2.636099,-8.9441 -0.914077,-1.0102 -3.800774,0.9125 -6.602948,3.2754 -2.802059,2.3626 -2.624723,4.8223 -1.711129,5.8331 z"
       style="opacity:0.75;fill:#ff00ff;fill-opacity:1;stroke:none" />
    <path
       style="fill:url(#linearGradient4182);fill-opacity:1;stroke:none"
       d="m 56.663686,1027.4198 c -2.618477,0.01 -8.251016,7.0577 -8.251016,7.0577 0,0 -3.894327,-6.9019 -7.297122,-6.8879 -0.727468,0 -1.743228,0.711 -1.808296,1.4863 -0.30419,3.627 7.297206,6.888 7.297206,6.888 0,0 -8.491864,4.7432 -8.72769,7.5343 -0.08505,1.0085 1.086831,1.914 2.032724,1.9111 2.61856,-0.01 8.727606,-7.5343 8.727606,-7.5343 0,0 3.894477,6.9017 7.297215,6.8879 0.727467,-0 1.743144,-0.711 1.808202,-1.4863 0.304265,-3.6268 -7.297205,-6.8879 -7.297205,-6.8879 0,0 8.015142,-4.2666 8.251016,-7.0577 -0.266764,-1.0215 -1.130147,-1.882 -2.032698,-1.911 z"
       id="path4164"
       inkscape:connector-curvature="0"
       sodipodi:nodetypes="ccsscsscssccc" />
    <path
       inkscape:connector-curvature="0"
       id="path4166"
       d="m 55.675564,1031.9511 c -1.578522,1.3325 -3.302955,1.8858 -3.851658,1.2359 -0.548447,-0.6503 0.286235,-2.2571 1.864708,-3.5897 1.578607,-1.3325 3.30303,-1.8857 3.851818,-1.2358 0.548346,0.6501 -0.286235,2.2571 -1.864868,3.5896 z"
       style="opacity:0.81199999;fill:#339900;fill-opacity:1;stroke:none" />
    <path
       transform="matrix(0.36423983,0.46948644,-0.64363502,0.53042221,51.587994,1019.5938)"
       d="m 21.125,25.6875 a 3,4.8125 0 1 1 -6,0 3,4.8125 0 1 1 6,0 z"
       sodipodi:ry="4.8125"
       sodipodi:rx="3"
       sodipodi:cy="25.6875"
       sodipodi:cx="18.125"
       id="path4168"
       style="opacity:0.6;fill:#339900;fill-opacity:1;stroke:none"
       sodipodi:type="arc" />
    <path
       style="fill:#000000;fill-opacity:1;stroke:none"
       d="m 57.096867,1026.9638 c -3.101661,-0.3404 -8.958119,7.1311 -8.663561,7.4256 0.267088,-0.267 -3.530285,-7.6677 -7.571627,-7.1416 -0.746465,0.098 -1.752619,0.7696 -1.898219,1.5645 -0.772378,4.2187 7.079065,7.6341 7.571694,7.1414 -0.02535,-0.049 -9.167134,4.4697 -9.164458,7.9267 7.96e-4,1.0567 1.129829,1.8671 2.108951,1.9817 3.1264,0.3649 9.21932,-7.8718 9.164449,-7.9266 -0.164664,0.2369 3.47126,7.9666 7.571721,7.1414 0.734531,-0.1481 1.739462,-0.7729 1.898153,-1.5643 0.831269,-4.147 -6.828456,-7.6861 -7.571695,-7.1413 0.06738,0.3471 8.491555,-4.0278 8.663601,-7.4259 -0.271543,-1.0648 -1.167077,-1.9574 -2.109658,-1.981 z"
       id="path4170"
       inkscape:connector-curvature="0"
       sodipodi:nodetypes="ccsscsscssccc" />
    <path
       style="opacity:0.75;fill:#ff00ff;fill-opacity:1;stroke:none"
       d="m 53.653756,1044.0911 c 0.914077,1.0103 2.87572,2.1984 5.677978,-0.1644 2.802142,-2.3627 3.549394,-7.9332 2.636099,-8.9441 -0.914077,-1.0102 -3.800774,0.9125 -6.602948,3.2754 -2.802059,2.3626 -2.624723,4.8223 -1.711129,5.8331 z"
       id="path4172"
       inkscape:connector-curvature="0"
       sodipodi:nodetypes="sssss" />
    <path
       sodipodi:nodetypes="sssss"
       inkscape:connector-curvature="0"
       id="path4174"
       d="m 43.237769,1028.3103 c -0.914076,-1.0103 -2.875794,-2.1985 -5.678052,0.1644 -2.8022,2.3627 -3.549321,7.9332 -2.636025,8.9441 0.914077,1.0102 3.800774,-0.9125 6.60289,-3.2753 2.802059,-2.3626 2.624698,-4.8224 1.711187,-5.8332 z"
       style="opacity:0.75;fill:#ff00ff;fill-opacity:1;stroke:none" />
    <path
       sodipodi:nodetypes="ccsscsscssccc"
       inkscape:connector-curvature="0"
       id="path4176"
       d="m 56.663686,1027.4198 c -2.618477,0.01 -8.251016,7.0577 -8.251016,7.0577 0,0 -3.894327,-6.9019 -7.297122,-6.8879 -0.727468,0 -1.743228,0.711 -1.808296,1.4863 -0.30419,3.627 7.297206,6.888 7.297206,6.888 0,0 -8.491864,4.7432 -8.72769,7.5343 -0.08505,1.0085 1.086831,1.914 2.032724,1.9111 2.61856,-0.01 8.727606,-7.5343 8.727606,-7.5343 0,0 3.894477,6.9017 7.297215,6.8879 0.727467,-0 1.743144,-0.711 1.808202,-1.4863 0.304265,-3.6268 -7.297205,-6.8879 -7.297205,-6.8879 0,0 8.015142,-4.2666 8.251016,-7.0577 -0.266764,-1.0215 -1.130147,-1.882 -2.032698,-1.911 z"
       style="fill:url(#linearGradient4184);fill-opacity:1;stroke:none" />
    <path
       style="opacity:0.81199999;fill:#339900;fill-opacity:1;stroke:none"
       d="m 55.675564,1031.9511 c -1.578522,1.3325 -3.302955,1.8858 -3.851658,1.2359 -0.548447,-0.6503 0.286235,-2.2571 1.864708,-3.5897 1.578607,-1.3325 3.30303,-1.8857 3.851818,-1.2358 0.548346,0.6501 -0.286235,2.2571 -1.864868,3.5896 z"
       id="path4178"
       inkscape:connector-curvature="0" />
    <path
       sodipodi:type="arc"
       style="opacity:0.6;fill:#339900;fill-opacity:1;stroke:none"
       id="path4180"
       sodipodi:cx="18.125"
       sodipodi:cy="25.6875"
       sodipodi:rx="3"
       sodipodi:ry="4.8125"
       d="m 21.125,25.6875 a 3,4.8125 0 1 1 -6,0 3,4.8125 0 1 1 6,0 z"
       transform="matrix(0.36423983,0.46948644,-0.64363502,0.53042221,51.587994,1019.5938)" />
    <path
       style="fill:#000000;fill-opacity:1;stroke:none"
       d="m 93.094408,1035.7865 c -1.952484,-2.434 -11.376809,-1.2919 -11.376766,-0.8754 0.377675,10e-5 2.925569,-7.9181 -0.304103,-10.4038 -0.596789,-0.4589 -1.78343,-0.6951 -2.448515,-0.236 -3.529192,2.4369 -0.392417,10.4038 0.304308,10.4037 0.0168,-0.053 -9.642719,-3.3215 -12.085297,-0.8752 -0.746636,0.7478 -0.521327,2.1192 0.08999,2.8925 1.952704,2.4687 12.085218,0.9529 12.085216,0.8753 -0.283941,0.051 -3.178705,8.0878 0.30426,10.4038 0.624156,0.4146 1.776539,0.6834 2.448309,0.2361 3.520208,-2.3446 0.606492,-10.2634 -0.304309,-10.4037 -0.197785,0.2931 8.852536,3.1563 11.377022,0.8751 0.560918,-0.9449 0.558795,-2.2092 -0.09099,-2.8925 z"
       id="path4186"
       inkscape:connector-curvature="0"
       sodipodi:nodetypes="ccsscsscssccc" />
    <path
       sodipodi:nodetypes="sssss"
       inkscape:connector-curvature="0"
       id="path4188"
       d="m 82.342442,1026.9387 c 0.068,-1.3607 -0.478919,-3.5881 -4.13123,-3.8987 -3.652187,-0.3108 -8.119404,3.0999 -8.188398,4.4605 -0.068,1.3607 3.332793,2.0423 6.984904,2.353 3.651988,0.3107 5.265924,-1.5541 5.334724,-2.9148 z"
       style="opacity:0.75;fill:#ff00ff;fill-opacity:1;stroke:none" />
    <path
       style="opacity:0.75;fill:#ff00ff;fill-opacity:1;stroke:none"
       d="m 78.548901,1045.4627 c -0.068,1.3607 0.478924,3.5879 4.131236,3.8986 3.652062,0.3108 8.119397,-3.0998 8.18839,-4.4604 0.068,-1.3607 -3.332791,-2.0423 -6.985028,-2.3529 -3.651988,-0.3107 -5.265873,1.5539 -5.334598,2.9147 z"
       id="path4190"
       inkscape:connector-curvature="0"
       sodipodi:nodetypes="sssss" />
    <path
       sodipodi:nodetypes="ccsscsscssccc"
       inkscape:connector-curvature="0"
       id="path4192"
       d="m 92.465623,1035.8026 c -1.85792,-1.8451 -10.824901,-0.8438 -10.824901,-0.8438 0,0 2.126712,-7.6341 -0.289316,-10.0303 -0.516507,-0.5123 -1.735406,-0.7299 -2.329679,-0.2277 -2.779711,2.3496 0.289391,10.0305 0.289391,10.0305 0,0 -9.358587,-2.6508 -11.498976,-0.8439 -0.773236,0.653 -0.584915,2.1219 0.08599,2.7887 1.857995,1.8452 11.498902,0.8438 11.498902,0.8438 0,0 -2.126432,7.6341 0.289472,10.0304 0.516507,0.5123 1.735331,0.7298 2.329522,0.2276 2.779705,-2.3494 -0.28939,-10.0304 -0.28939,-10.0304 0,0 8.684468,2.6507 10.8249,0.8438 0.533653,-0.9109 0.531659,-2.1299 -0.08604,-2.7886 z"
       style="fill:url(#linearGradient4210);fill-opacity:1;stroke:none" />
    <path
       style="opacity:0.81199999;fill:#339900;fill-opacity:1;stroke:none"
       d="m 88.562842,1038.308 c -2.058443,-0.1739 -3.669021,-1.0021 -3.597442,-1.8496 0.07203,-0.8477 1.798403,-1.3936 3.856803,-1.2197 2.05852,0.1739 3.669016,1.0021 3.597513,1.8498 -0.07197,0.8474 -1.798404,1.3936 -3.856874,1.2195 z"
       id="path4194"
       inkscape:connector-curvature="0" />
    <path
       sodipodi:type="arc"
       style="opacity:0.6;fill:#339900;fill-opacity:1;stroke:none"
       id="path4196"
       sodipodi:cx="18.125"
       sodipodi:cy="25.6875"
       sodipodi:rx="3"
       sodipodi:ry="4.8125"
       d="m 21.125,25.6875 a 3,4.8125 0 1 1 -6,0 3,4.8125 0 1 1 6,0 z"
       transform="matrix(-0.07442059,0.5895335,-0.83018383,-0.08005355,94.410442,1026.6797)" />
    <path
       sodipodi:nodetypes="ccsscsscssccc"
       inkscape:connector-curvature="0"
       id="path4198"
       d="m 93.094408,1035.7865 c -1.952484,-2.434 -11.376809,-1.2919 -11.376766,-0.8754 0.377675,10e-5 2.925569,-7.9181 -0.304103,-10.4038 -0.596789,-0.4589 -1.78343,-0.6951 -2.448515,-0.236 -3.529192,2.4369 -0.392417,10.4038 0.304308,10.4037 0.0168,-0.053 -9.642719,-3.3215 -12.085297,-0.8752 -0.746636,0.7478 -0.521327,2.1192 0.08999,2.8925 1.952704,2.4687 12.085218,0.9529 12.085216,0.8753 -0.283941,0.051 -3.178705,8.0878 0.30426,10.4038 0.624156,0.4146 1.776539,0.6834 2.448309,0.2361 3.520208,-2.3446 0.606492,-10.2634 -0.304309,-10.4037 -0.197785,0.2931 8.852536,3.1563 11.377022,0.8751 0.560918,-0.9449 0.558795,-2.2092 -0.09099,-2.8925 z"
       style="fill:#000000;fill-opacity:1;stroke:none" />
    <path
       sodipodi:nodetypes="sssss"
       inkscape:connector-curvature="0"
       id="path4200"
       d="m 78.548901,1045.4627 c -0.068,1.3607 0.478924,3.5879 4.131236,3.8986 3.652062,0.3108 8.119397,-3.0998 8.18839,-4.4604 0.068,-1.3607 -3.332791,-2.0423 -6.985028,-2.3529 -3.651988,-0.3107 -5.265873,1.5539 -5.334598,2.9147 z"
       style="opacity:0.75;fill:#ff00ff;fill-opacity:1;stroke:none" />
    <path
       style="opacity:0.75;fill:#ff00ff;fill-opacity:1;stroke:none"
       d="m 82.342442,1026.9387 c 0.068,-1.3607 -0.478919,-3.5881 -4.13123,-3.8987 -3.652187,-0.3108 -8.119404,3.0999 -8.188398,4.4605 -0.068,1.3607 3.332793,2.0423 6.984904,2.353 3.651988,0.3107 5.265924,-1.5541 5.334724,-2.9148 z"
       id="path4202"
       inkscape:connector-curvature="0"
       sodipodi:nodetypes="sssss" />
    <path
       style="fill:url(#linearGradient4212);fill-opacity:1;stroke:none"
       d="m 92.465623,1035.8026 c -1.85792,-1.8451 -10.824901,-0.8438 -10.824901,-0.8438 0,0 2.126712,-7.6341 -0.289316,-10.0303 -0.516507,-0.5123 -1.735406,-0.7299 -2.329679,-0.2277 -2.779711,2.3496 0.289391,10.0305 0.289391,10.0305 0,0 -9.358587,-2.6508 -11.498976,-0.8439 -0.773236,0.653 -0.584915,2.1219 0.08599,2.7887 1.857995,1.8452 11.498902,0.8438 11.498902,0.8438 0,0 -2.126432,7.6341 0.289472,10.0304 0.516507,0.5123 1.735331,0.7298 2.329522,0.2276 2.779705,-2.3494 -0.28939,-10.0304 -0.28939,-10.0304 0,0 8.684468,2.6507 10.8249,0.8438 0.533653,-0.9109 0.531659,-2.1299 -0.08604,-2.7886 z"
       id="path4204"
       inkscape:connector-curvature="0"
       sodipodi:nodetypes="ccsscsscssccc" />
    <path
       inkscape:connector-curvature="0"
       id="path4206"
       d="m 88.562842,1038.308 c -2.058443,-0.1739 -3.669021,-1.0021 -3.597442,-1.8496 0.07203,-0.8477 1.798403,-1.3936 3.856803,-1.2197 2.05852,0.1739 3.669016,1.0021 3.597513,1.8498 -0.07197,0.8474 -1.798404,1.3936 -3.856874,1.2195 z"
       style="opacity:0.81199999;fill:#339900;fill-opacity:1;stroke:none" />
    <path
       transform="matrix(-0.07442059,0.5895335,-0.83018383,-0.08005355,94.410442,1026.6797)"
       d="m 21.125,25.6875 a 3,4.8125 0 1 1 -6,0 3,4.8125 0 1 1 6,0 z"
       sodipodi:ry="4.8125"
       sodipodi:rx="3"
       sodipodi:cy="25.6875"
       sodipodi:cx="18.125"
       id="path4208"
       style="opacity:0.6;fill:#339900;fill-opacity:1;stroke:none"
       sodipodi:type="arc" />
    <path
       sodipodi:nodetypes="ccsscsscssccc"
       inkscape:connector-curvature="0"
       id="path4214"
       d="m 121.59687,1045.0585 c 0.34049,-3.1017 -7.13111,-8.9581 -7.42558,-8.6636 0.26698,0.2671 7.66763,-3.5302 7.14156,-7.5716 -0.0975,-0.7465 -0.76957,-1.7526 -1.56448,-1.8983 -4.21867,-0.7723 -7.63409,7.0791 -7.14135,7.5717 0.0493,-0.026 -4.46978,-9.167 -7.92674,-9.1644 -1.05673,8e-4 -1.86713,1.1298 -1.98167,2.1089 -0.36487,3.1264 7.87174,9.2194 7.92661,9.1645 -0.23684,-0.1647 -7.96663,3.4712 -7.14146,7.5717 0.14818,0.7345 0.77297,1.7395 1.56427,1.8982 4.14704,0.8313 7.68618,-6.8285 7.14135,-7.5717 -0.34711,0.067 4.02784,8.4915 7.42598,8.6635 1.06477,-0.2715 1.95726,-1.167 1.98096,-2.1096 z"
       style="fill:#000000;fill-opacity:1;stroke:none" />
    <path
       style="opacity:0.75;fill:#ff00ff;fill-opacity:1;stroke:none"
       d="m 120.25043,1031.1994 c 1.01024,-0.9141 2.19852,-2.8759 -0.16443,-5.6781 -2.36272,-2.8022 -7.93325,-3.5493 -8.94412,-2.636 -1.01024,0.9141 0.91251,3.8008 3.27525,6.6029 2.36265,2.8021 4.82249,2.6247 5.8333,1.7112 z"
       id="path4216"
       inkscape:connector-curvature="0"
       sodipodi:nodetypes="sssss" />
    <path
       sodipodi:nodetypes="sssss"
       inkscape:connector-curvature="0"
       id="path4218"
       d="m 104.46954,1041.6154 c -1.01024,0.9141 -2.19838,2.8756 0.1645,5.6779 2.36262,2.8022 7.93317,3.5494 8.94404,2.6361 1.01024,-0.9141 -0.91251,-3.8008 -3.27541,-6.6029 -2.36264,-2.802 -4.82231,-2.6248 -5.83313,-1.7111 z"
       style="opacity:0.75;fill:#ff00ff;fill-opacity:1;stroke:none" />
    <path
       style="fill:url(#linearGradient4238);fill-opacity:1;stroke:none"
       d="m 121.14087,1044.6253 c -0.009,-2.6185 -7.0577,-8.2511 -7.0577,-8.2511 0,0 6.90193,-3.8943 6.88791,-7.297 -0.003,-0.7275 -0.711,-1.7433 -1.48632,-1.8084 -3.62697,-0.3041 -6.88801,7.2973 -6.88801,7.2973 0,0 -4.74312,-8.4919 -7.53427,-8.7277 -1.0085,-0.085 -1.91401,1.0868 -1.91111,2.0327 0.009,2.6185 7.5343,8.7276 7.5343,8.7276 0,0 -6.90174,3.8945 -6.88788,7.2972 0.003,0.7275 0.71102,1.7431 1.48628,1.8082 3.62683,0.3043 6.88794,-7.2972 6.88794,-7.2972 0,0 4.26652,8.0152 7.0577,8.251 1.02146,-0.2667 1.88201,-1.1301 1.91103,-2.0326 z"
       id="path4220"
       inkscape:connector-curvature="0"
       sodipodi:nodetypes="ccsscsscssccc" />
    <path
       inkscape:connector-curvature="0"
       id="path4222"
       d="m 116.6096,1043.6372 c -1.33257,-1.5785 -1.88579,-3.303 -1.23591,-3.8517 0.65033,-0.5485 2.25709,0.2863 3.58963,1.8647 1.33263,1.5786 1.88579,3.303 1.23582,3.8519 -0.65012,0.5483 -2.25709,-0.2863 -3.58954,-1.8649 z"
       style="opacity:0.81199999;fill:#339900;fill-opacity:1;stroke:none" />
    <path
       transform="matrix(-0.46948644,0.36423983,-0.53042221,-0.64363502,128.96693,1039.5496)"
       d="m 21.125,25.6875 a 3,4.8125 0 1 1 -6,0 3,4.8125 0 1 1 6,0 z"
       sodipodi:ry="4.8125"
       sodipodi:rx="3"
       sodipodi:cy="25.6875"
       sodipodi:cx="18.125"
       id="path4224"
       style="opacity:0.6;fill:#339900;fill-opacity:1;stroke:none"
       sodipodi:type="arc" />
    <path
       style="fill:#000000;fill-opacity:1;stroke:none"
       d="m 121.59687,1045.0585 c 0.34049,-3.1017 -7.13111,-8.9581 -7.42558,-8.6636 0.26698,0.2671 7.66763,-3.5302 7.14156,-7.5716 -0.0975,-0.7465 -0.76957,-1.7526 -1.56448,-1.8983 -4.21867,-0.7723 -7.63409,7.0791 -7.14135,7.5717 0.0493,-0.026 -4.46978,-9.167 -7.92674,-9.1644 -1.05673,8e-4 -1.86713,1.1298 -1.98167,2.1089 -0.36487,3.1264 7.87174,9.2194 7.92661,9.1645 -0.23684,-0.1647 -7.96663,3.4712 -7.14146,7.5717 0.14818,0.7345 0.77297,1.7395 1.56427,1.8982 4.14704,0.8313 7.68618,-6.8285 7.14135,-7.5717 -0.34711,0.067 4.02784,8.4915 7.42598,8.6635 1.06477,-0.2715 1.95726,-1.167 1.98096,-2.1096 z"
       id="path4226"
       inkscape:connector-curvature="0"
       sodipodi:nodetypes="ccsscsscssccc" />
    <path
       style="opacity:0.75;fill:#ff00ff;fill-opacity:1;stroke:none"
       d="m 104.46954,1041.6154 c -1.01024,0.9141 -2.19838,2.8756 0.1645,5.6779 2.36262,2.8022 7.93317,3.5494 8.94404,2.6361 1.01024,-0.9141 -0.91251,-3.8008 -3.27541,-6.6029 -2.36264,-2.802 -4.82231,-2.6248 -5.83313,-1.7111 z"
       id="path4228"
       inkscape:connector-curvature="0"
       sodipodi:nodetypes="sssss" />
    <path
       sodipodi:nodetypes="sssss"
       inkscape:connector-curvature="0"
       id="path4230"
       d="m 120.25043,1031.1994 c 1.01024,-0.9141 2.19852,-2.8759 -0.16443,-5.6781 -2.36272,-2.8022 -7.93325,-3.5493 -8.94412,-2.636 -1.01024,0.9141 0.91251,3.8008 3.27525,6.6029 2.36265,2.8021 4.82249,2.6247 5.8333,1.7112 z"
       style="opacity:0.75;fill:#ff00ff;fill-opacity:1;stroke:none" />
    <path
       sodipodi:nodetypes="ccsscsscssccc"
       inkscape:connector-curvature="0"
       id="path4232"
       d="m 121.14087,1044.6253 c -0.009,-2.6185 -7.0577,-8.2511 -7.0577,-8.2511 0,0 6.90193,-3.8943 6.88791,-7.297 -0.003,-0.7275 -0.711,-1.7433 -1.48632,-1.8084 -3.62697,-0.3041 -6.88801,7.2973 -6.88801,7.2973 0,0 -4.74312,-8.4919 -7.53427,-8.7277 -1.0085,-0.085 -1.91401,1.0868 -1.91111,2.0327 0.009,2.6185 7.5343,8.7276 7.5343,8.7276 0,0 -6.90174,3.8945 -6.88788,7.2972 0.003,0.7275 0.71102,1.7431 1.48628,1.8082 3.62683,0.3043 6.88794,-7.2972 6.88794,-7.2972 0,0 4.26652,8.0152 7.0577,8.251 1.02146,-0.2667 1.88201,-1.1301 1.91103,-2.0326 z"
       style="fill:url(#linearGradient4240);fill-opacity:1;stroke:none" />
    <path
       style="opacity:0.81199999;fill:#339900;fill-opacity:1;stroke:none"
       d="m 116.6096,1043.6372 c -1.33257,-1.5785 -1.88579,-3.303 -1.23591,-3.8517 0.65033,-0.5485 2.25709,0.2863 3.58963,1.8647 1.33263,1.5786 1.88579,3.303 1.23582,3.8519 -0.65012,0.5483 -2.25709,-0.2863 -3.58954,-1.8649 z"
       id="path4234"
       inkscape:connector-curvature="0" />
    <path
       sodipodi:type="arc"
       style="opacity:0.6;fill:#339900;fill-opacity:1;stroke:none"
       id="path4236"
       sodipodi:cx="18.125"
       sodipodi:cy="25.6875"
       sodipodi:rx="3"
       sodipodi:ry="4.8125"
       d="m 21.125,25.6875 a 3,4.8125 0 1 1 -6,0 3,4.8125 0 1 1 6,0 z"
       transform="matrix(-0.46948644,0.36423983,-0.53042221,-0.64363502,128.96693,1039.5496)" />
    <path
       style="fill:#000000;fill-opacity:1;stroke:none"
       d="m 144.71208,1049.2063 c 2.434,-1.9524 1.29188,-11.3767 0.87541,-11.3767 -8e-5,0.3776 7.91806,2.9256 10.40378,-0.3041 0.45891,-0.5968 0.6951,-1.7834 0.23604,-2.4486 -2.43695,-3.5291 -10.40379,-0.3924 -10.40369,0.3043 0.0532,0.016 3.32143,-9.6426 0.87515,-12.0852 -0.74778,-0.7467 -2.11915,-0.5214 -2.89247,0.09 -2.4687,1.9527 -0.95293,12.0853 -0.87532,12.0853 -0.051,-0.2839 -8.08776,-3.1788 -10.40377,0.3042 -0.41459,0.6242 -0.68344,1.7766 -0.23613,2.4484 2.34459,3.5202 10.26343,0.6064 10.4037,-0.3044 -0.29282,-0.198 -3.15628,8.8526 -0.87506,11.377 0.94489,0.561 2.20919,0.5588 2.89247,-0.091 z"
       id="path4242"
       inkscape:connector-curvature="0"
       sodipodi:nodetypes="ccsscsscssccc" />
    <path
       sodipodi:nodetypes="sssss"
       inkscape:connector-curvature="0"
       id="path4244"
       d="m 153.55987,1038.4544 c 1.36071,0.068 3.58815,-0.479 3.89875,-4.1313 0.31076,-3.6521 -3.09992,-8.1194 -4.46051,-8.1884 -1.36072,-0.068 -2.04233,3.3328 -2.35301,6.9849 -0.31074,3.6521 1.55407,5.266 2.91477,5.3348 z"
       style="opacity:0.75;fill:#ff00ff;fill-opacity:1;stroke:none" />
    <path
       style="opacity:0.75;fill:#ff00ff;fill-opacity:1;stroke:none"
       d="m 135.03587,1034.6609 c -1.36072,-0.068 -3.58785,0.4788 -3.89856,4.1312 -0.31083,3.652 3.09979,8.1194 4.46038,8.1884 1.36072,0.068 2.04233,-3.3329 2.35289,-6.9851 0.31068,-3.6519 -1.55387,-5.2659 -2.91471,-5.3345 z"
       id="path4246"
       inkscape:connector-curvature="0"
       sodipodi:nodetypes="sssss" />
    <path
       sodipodi:nodetypes="ccsscsscssccc"
       inkscape:connector-curvature="0"
       id="path4248"
       d="m 144.69596,1048.5776 c 1.84519,-1.8579 0.84386,-10.825 0.84386,-10.825 0,0 7.63409,2.1267 10.03025,-0.2892 0.51229,-0.5166 0.72994,-1.7355 0.22774,-2.3298 -2.34962,-2.7796 -10.03053,0.2895 -10.03053,0.2895 0,0 2.65079,-9.3586 0.84388,-11.499 -0.65301,-0.7732 -2.12189,-0.5849 -2.78869,0.086 -1.8452,1.8579 -0.84379,11.4989 -0.84379,11.4989 0,0 -7.6341,-2.1265 -10.03037,0.2894 -0.5123,0.5166 -0.72979,1.7353 -0.22763,2.3296 2.34938,2.7797 10.03041,-0.2894 10.03041,-0.2894 0,0 -2.65072,8.6845 -0.84379,10.8249 0.91087,0.5337 2.12988,0.5316 2.78857,-0.086 z"
       style="fill:url(#linearGradient4266);fill-opacity:1;stroke:none" />
    <path
       style="opacity:0.81199999;fill:#339900;fill-opacity:1;stroke:none"
       d="m 142.19056,1044.6748 c 0.1739,-2.0584 1.00212,-3.669 1.84964,-3.5975 0.8477,0.072 1.39356,1.7985 1.21971,3.8568 -0.17393,2.0586 -1.00212,3.669 -1.84985,3.5976 -0.84741,-0.072 -1.39356,-1.7985 -1.2195,-3.8569 z"
       id="path4250"
       inkscape:connector-curvature="0" />
    <path
       sodipodi:type="arc"
       style="opacity:0.6;fill:#339900;fill-opacity:1;stroke:none"
       id="path4252"
       sodipodi:cx="18.125"
       sodipodi:cy="25.6875"
       sodipodi:rx="3"
       sodipodi:ry="4.8125"
       d="m 21.125,25.6875 a 3,4.8125 0 1 1 -6,0 3,4.8125 0 1 1 6,0 z"
       transform="matrix(-0.5895335,-0.07442059,0.08005355,-0.83018383,153.81888,1050.5224)" />
    <path
       sodipodi:nodetypes="ccsscsscssccc"
       inkscape:connector-curvature="0"
       id="path4254"
       d="m 144.71208,1049.2063 c 2.434,-1.9524 1.29188,-11.3767 0.87541,-11.3767 -8e-5,0.3776 7.91806,2.9256 10.40378,-0.3041 0.45891,-0.5968 0.6951,-1.7834 0.23604,-2.4486 -2.43695,-3.5291 -10.40379,-0.3924 -10.40369,0.3043 0.0532,0.016 3.32143,-9.6426 0.87515,-12.0852 -0.74778,-0.7467 -2.11915,-0.5214 -2.89247,0.09 -2.4687,1.9527 -0.95293,12.0853 -0.87532,12.0853 -0.051,-0.2839 -8.08776,-3.1788 -10.40377,0.3042 -0.41459,0.6242 -0.68344,1.7766 -0.23613,2.4484 2.34459,3.5202 10.26343,0.6064 10.4037,-0.3044 -0.29282,-0.198 -3.15628,8.8526 -0.87506,11.377 0.94489,0.561 2.20919,0.5588 2.89247,-0.091 z"
       style="fill:#000000;fill-opacity:1;stroke:none" />
    <path
       sodipodi:nodetypes="sssss"
       inkscape:connector-curvature="0"
       id="path4256"
       d="m 135.03587,1034.6609 c -1.36072,-0.068 -3.58785,0.4788 -3.89856,4.1312 -0.31083,3.652 3.09979,8.1194 4.46038,8.1884 1.36072,0.068 2.04233,-3.3329 2.35289,-6.9851 0.31068,-3.6519 -1.55387,-5.2659 -2.91471,-5.3345 z"
       style="opacity:0.75;fill:#ff00ff;fill-opacity:1;stroke:none" />
    <path
       style="opacity:0.75;fill:#ff00ff;fill-opacity:1;stroke:none"
       d="m 153.55987,1038.4544 c 1.36071,0.068 3.58815,-0.479 3.89875,-4.1313 0.31076,-3.6521 -3.09992,-8.1194 -4.46051,-8.1884 -1.36072,-0.068 -2.04233,3.3328 -2.35301,6.9849 -0.31074,3.6521 1.55407,5.266 2.91477,5.3348 z"
       id="path4258"
       inkscape:connector-curvature="0"
       sodipodi:nodetypes="sssss" />
    <path
       style="fill:url(#linearGradient4268);fill-opacity:1;stroke:none"
       d="m 144.69596,1048.5776 c 1.84519,-1.8579 0.84386,-10.825 0.84386,-10.825 0,0 7.63409,2.1267 10.03025,-0.2892 0.51229,-0.5166 0.72994,-1.7355 0.22774,-2.3298 -2.34962,-2.7796 -10.03053,0.2895 -10.03053,0.2895 0,0 2.65079,-9.3586 0.84388,-11.499 -0.65301,-0.7732 -2.12189,-0.5849 -2.78869,0.086 -1.8452,1.8579 -0.84379,11.4989 -0.84379,11.4989 0,0 -7.6341,-2.1265 -10.03037,0.2894 -0.5123,0.5166 -0.72979,1.7353 -0.22763,2.3296 2.34938,2.7797 10.03041,-0.2894 10.03041,-0.2894 0,0 -2.65072,8.6845 -0.84379,10.8249 0.91087,0.5337 2.12988,0.5316 2.78857,-0.086 z"
       id="path4260"
       inkscape:connector-curvature="0"
       sodipodi:nodetypes="ccsscsscssccc" />
    <path
       inkscape:connector-curvature="0"
       id="path4262"
       d="m 142.19056,1044.6748 c 0.1739,-2.0584 1.00212,-3.669 1.84964,-3.5975 0.8477,0.072 1.39356,1.7985 1.21971,3.8568 -0.17393,2.0586 -1.00212,3.669 -1.84985,3.5976 -0.84741,-0.072 -1.39356,-1.7985 -1.2195,-3.8569 z"
       style="opacity:0.81199999;fill:#339900;fill-opacity:1;stroke:none" />
    <path
       transform="matrix(-0.5895335,-0.07442059,0.08005355,-0.83018383,153.81888,1050.5224)"
       d="m 21.125,25.6875 a 3,4.8125 0 1 1 -6,0 3,4.8125 0 1 1 6,0 z"
       sodipodi:ry="4.8125"
       sodipodi:rx="3"
       sodipodi:cy="25.6875"
       sodipodi:cx="18.125"
       id="path4264"
       style="opacity:0.6;fill:#339900;fill-opacity:1;stroke:none"
       sodipodi:type="arc" />
  </g>
</svg>
