<?xml version="1.0" encoding="UTF-8" standalone="no"?>
<!-- Created with Inkscape (http://www.inkscape.org/) -->

<svg
   xmlns:dc="http://purl.org/dc/elements/1.1/"
   xmlns:cc="http://creativecommons.org/ns#"
   xmlns:rdf="http://www.w3.org/1999/02/22-rdf-syntax-ns#"
   xmlns:svg="http://www.w3.org/2000/svg"
   xmlns="http://www.w3.org/2000/svg"
   xmlns:xlink="http://www.w3.org/1999/xlink"
   xmlns:sodipodi="http://sodipodi.sourceforge.net/DTD/sodipodi-0.dtd"
   xmlns:inkscape="http://www.inkscape.org/namespaces/inkscape"
   width="512"
   height="128"
   id="svg2"
   version="1.1"
   inkscape:version="0.48.4 r9939"
   sodipodi:docname="star.svg"
   inkscape:export-filename="/home/darko/Radovi/AppDev/Emacs/JS/Createjs/Emergency/assets/star.png"
   inkscape:export-xdpi="90"
   inkscape:export-ydpi="90">
  <defs
     id="defs4">
    <linearGradient
       inkscape:collect="always"
       id="linearGradient3790">
      <stop
         style="stop-color:#013397;stop-opacity:1"
         offset="0"
         id="stop3792" />
      <stop
         style="stop-color:#b3defd;stop-opacity:1"
         offset="1"
         id="stop3794" />
    </linearGradient>
    <linearGradient
       inkscape:collect="always"
       id="linearGradient3755">
      <stop
         style="stop-color:#003366;stop-opacity:1"
         offset="0"
         id="stop3757" />
      <stop
         style="stop-color:#aaccee;stop-opacity:1"
         offset="1"
         id="stop3759" />
    </linearGradient>
    <radialGradient
       inkscape:collect="always"
       xlink:href="#linearGradient3755"
       id="radialGradient3761"
       cx="72.318893"
       cy="68.769501"
       fx="72.318893"
       fy="68.769501"
       r="55.68111"
       gradientUnits="userSpaceOnUse" />
    <radialGradient
       inkscape:collect="always"
       xlink:href="#linearGradient3790"
       id="radialGradient3796"
       cx="39.708839"
       cy="32.61005"
       fx="39.708839"
       fy="32.61005"
       r="39.751919"
       gradientUnits="userSpaceOnUse" />
    <radialGradient
       inkscape:collect="always"
       xlink:href="#linearGradient3790"
       id="radialGradient3824"
       gradientUnits="userSpaceOnUse"
       cx="39.708839"
       cy="32.61005"
       fx="39.708839"
       fy="32.61005"
       r="39.751919" />
    <radialGradient
       inkscape:collect="always"
       xlink:href="#linearGradient3790"
       id="radialGradient3828"
       gradientUnits="userSpaceOnUse"
       cx="39.708839"
       cy="32.61005"
       fx="39.708839"
       fy="32.61005"
       r="39.751919" />
    <radialGradient
       inkscape:collect="always"
       xlink:href="#linearGradient3790"
       id="radialGradient3832"
       gradientUnits="userSpaceOnUse"
       cx="39.708839"
       cy="32.61005"
       fx="39.708839"
       fy="32.61005"
       r="39.751919" />
    <filter
       inkscape:collect="always"
       id="filter3778">
      <feGaussianBlur
         inkscape:collect="always"
         stdDeviation="0.79503841"
         id="feGaussianBlur3780" />
    </filter>
    <filter
       inkscape:collect="always"
       id="filter3794">
      <feGaussianBlur
         inkscape:collect="always"
         stdDeviation="1.1925576"
         id="feGaussianBlur3796" />
    </filter>
    <filter
       inkscape:collect="always"
       id="filter3820">
      <feGaussianBlur
         inkscape:collect="always"
         stdDeviation="1.1925576"
         id="feGaussianBlur3822" />
    </filter>
    <filter
       inkscape:collect="always"
       id="filter3824">
      <feGaussianBlur
         inkscape:collect="always"
         stdDeviation="1.5900768"
         id="feGaussianBlur3826" />
    </filter>
  </defs>
  <sodipodi:namedview
     id="base"
     pagecolor="#ffffff"
     bordercolor="#666666"
     borderopacity="1.0"
     inkscape:pageopacity="0.0"
     inkscape:pageshadow="2"
     inkscape:zoom="2.2539063"
     inkscape:cx="315.05667"
     inkscape:cy="52.955346"
     inkscape:document-units="px"
     inkscape:current-layer="layer1"
     showgrid="true"
     inkscape:window-width="1366"
     inkscape:window-height="747"
     inkscape:window-x="0"
     inkscape:window-y="0"
     inkscape:window-maximized="1">
    <inkscape:grid
       type="xygrid"
       id="grid3810"
       empspacing="5"
       visible="true"
       enabled="true"
       snapvisiblegridlinesonly="true"
       spacingx="128px"
       spacingy="128px" />
  </sodipodi:namedview>
  <metadata
     id="metadata7">
    <rdf:RDF>
      <cc:Work
         rdf:about="">
        <dc:format>image/svg+xml</dc:format>
        <dc:type
           rdf:resource="http://purl.org/dc/dcmitype/StillImage" />
        <dc:title></dc:title>
      </cc:Work>
    </rdf:RDF>
  </metadata>
  <g
     inkscape:label="Layer 1"
     inkscape:groupmode="layer"
     id="layer1"
     transform="translate(0,-924.36218)">
    <path
       sodipodi:type="star"
       style="fill:url(#radialGradient3796);fill-opacity:1;stroke:none;filter:url(#filter3778)"
       id="path3788"
       sodipodi:sides="64"
       sodipodi:cx="39.708839"
       sodipodi:cy="32.61005"
       sodipodi:r1="35.778088"
       sodipodi:r2="39.753429"
       sodipodi:arg1="0.92394702"
       sodipodi:arg2="0.97303441"
       inkscape:flatsided="false"
       inkscape:rounded="0"
       inkscape:randomized="0"
       d="m 61.271405,61.160485 0.810422,4.309641 -3.712683,-2.333618 0.3841,4.368324 -3.466071,-2.686288 -0.04592,4.384938 -3.186078,-3.013087 -0.475498,4.359323 -2.875403,-3.310869 -0.900496,4.291724 -2.537035,-3.576764 -1.316823,4.182794 -2.174234,-3.808214 -1.720468,4.033582 -1.790494,-4.00299 -2.107543,3.845524 -1.389511,-4.159212 -2.474322,3.620431 -0.975146,-4.275381 -2.817272,3.360472 -0.55139,-4.350375 -3.133089,3.068149 -0.122324,-4.383472 -3.418734,2.746279 0.307921,-4.374354 -3.671455,2.39796 0.7352,-4.323109 -3.888816,2.026548 1.155398,-4.23023 -4.068727,1.635619 1.56447,-4.096612 -4.2094541,1.228938 1.9584751,-3.92354 L 6.8487634,54.983037 9.182382,51.270354 4.8140575,51.654455 7.5003456,48.188384 3.1154073,48.142464 6.1284946,44.956385 1.7691719,44.480888 5.0800406,41.605485 0.78831625,40.704989 4.365081,38.167954 0.1822865,36.851131 3.990501,34.676897 -0.04308094,32.956429 3.9599082,31.165935 0.11438435,29.058392 4.2735971,27.668881 0.65316589,25.194559 4.9285468,24.219413 1.5680749,21.402141 5.9184497,20.850751 2.8503003,17.717661 7.2337725,17.595338 4.4874937,14.176604 8.861848,14.484525 6.4638878,10.81307 l 4.3231092,0.7352 -2.026548,-3.8888166 4.23023,1.1553988 -1.635619,-4.0687275 4.096611,1.5644702 -1.228937,-4.2094542 3.92354,1.958475 -0.810422,-4.30964147 3.712683,2.33361857 -0.3841,-4.3683246 3.466071,2.68628818 0.04592,-4.38493828 3.186078,3.01308726 0.475498,-4.35932266 2.875403,3.3108687 0.900496,-4.2917244 2.537035,3.5767648 1.316823,-4.1827945 2.174234,3.8082145 1.720467,-4.033582 1.790495,4.0029892 2.107543,-3.8455239 1.389511,4.1592128 2.474322,-3.6204312 0.975146,4.2753808 2.817272,-3.3604718 0.551389,4.3503747 3.13309,-3.0681493 0.122324,4.38347218 3.418734,-2.74627888 -0.307921,4.3743543 3.671455,-2.39796013 -0.735201,4.32310903 3.888817,-2.0265478 -1.155399,4.2302298 4.068728,-1.6356187 -1.56447,4.0966112 4.209454,-1.2289377 -1.958475,3.9235396 4.309641,-0.810421 -2.333618,3.712683 4.368324,-0.3841 -2.686288,3.466071 4.384939,0.04592 -3.013088,3.186079 4.359323,0.475498 -3.310869,2.875402 4.291725,0.900497 -3.576765,2.537035 4.182794,1.316823 -3.808214,2.174234 4.033582,1.720467 -4.002989,1.790494 3.845523,2.107544 -4.159212,1.389511 3.620431,2.474322 -4.275381,0.975146 3.360472,2.817272 -4.350375,0.551389 3.068149,3.13309 -4.383472,0.122323 2.746279,3.418735 -4.374354,-0.307921 2.39796,3.671454 -4.323109,-0.7352 2.026548,3.888817 -4.23023,-1.155399 1.635619,4.068728 -4.096612,-1.56447 1.228938,4.209454 z"
       transform="matrix(1.3442147,0,0,1.3442147,12.622795,944.52726)" />
    <path
       transform="matrix(1.4079861,0,0,1.4079861,136.96582,942.44768)"
       d="m 61.271405,61.160485 0.810422,4.309641 -3.712683,-2.333618 0.3841,4.368324 -3.466071,-2.686288 -0.04592,4.384938 -3.186078,-3.013087 -0.475498,4.359323 -2.875403,-3.310869 -0.900496,4.291724 -2.537035,-3.576764 -1.316823,4.182794 -2.174234,-3.808214 -1.720468,4.033582 -1.790494,-4.00299 -2.107543,3.845524 -1.389511,-4.159212 -2.474322,3.620431 -0.975146,-4.275381 -2.817272,3.360472 -0.55139,-4.350375 -3.133089,3.068149 -0.122324,-4.383472 -3.418734,2.746279 0.307921,-4.374354 -3.671455,2.39796 0.7352,-4.323109 -3.888816,2.026548 1.155398,-4.23023 -4.068727,1.635619 1.56447,-4.096612 -4.2094541,1.228938 1.9584751,-3.92354 L 6.8487634,54.983037 9.182382,51.270354 4.8140575,51.654455 7.5003456,48.188384 3.1154073,48.142464 6.1284946,44.956385 1.7691719,44.480888 5.0800406,41.605485 0.78831625,40.704989 4.365081,38.167954 0.1822865,36.851131 3.990501,34.676897 -0.04308094,32.956429 3.9599082,31.165935 0.11438435,29.058392 4.2735971,27.668881 0.65316589,25.194559 4.9285468,24.219413 1.5680749,21.402141 5.9184497,20.850751 2.8503003,17.717661 7.2337725,17.595338 4.4874937,14.176604 8.861848,14.484525 6.4638878,10.81307 l 4.3231092,0.7352 -2.026548,-3.8888166 4.23023,1.1553988 -1.635619,-4.0687275 4.096611,1.5644702 -1.228937,-4.2094542 3.92354,1.958475 -0.810422,-4.30964147 3.712683,2.33361857 -0.3841,-4.3683246 3.466071,2.68628818 0.04592,-4.38493828 3.186078,3.01308726 0.475498,-4.35932266 2.875403,3.3108687 0.900496,-4.2917244 2.537035,3.5767648 1.316823,-4.1827945 2.174234,3.8082145 1.720467,-4.033582 1.790495,4.0029892 2.107543,-3.8455239 1.389511,4.1592128 2.474322,-3.6204312 0.975146,4.2753808 2.817272,-3.3604718 0.551389,4.3503747 3.13309,-3.0681493 0.122324,4.38347218 3.418734,-2.74627888 -0.307921,4.3743543 3.671455,-2.39796013 -0.735201,4.32310903 3.888817,-2.0265478 -1.155399,4.2302298 4.068728,-1.6356187 -1.56447,4.0966112 4.209454,-1.2289377 -1.958475,3.9235396 4.309641,-0.810421 -2.333618,3.712683 4.368324,-0.3841 -2.686288,3.466071 4.384939,0.04592 -3.013088,3.186079 4.359323,0.475498 -3.310869,2.875402 4.291725,0.900497 -3.576765,2.537035 4.182794,1.316823 -3.808214,2.174234 4.033582,1.720467 -4.002989,1.790494 3.845523,2.107544 -4.159212,1.389511 3.620431,2.474322 -4.275381,0.975146 3.360472,2.817272 -4.350375,0.551389 3.068149,3.13309 -4.383472,0.122323 2.746279,3.418735 -4.374354,-0.307921 2.39796,3.671454 -4.323109,-0.7352 2.026548,3.888817 -4.23023,-1.155399 1.635619,4.068728 -4.096612,-1.56447 1.228938,4.209454 z"
       inkscape:randomized="0"
       inkscape:rounded="0"
       inkscape:flatsided="false"
       sodipodi:arg2="0.97303441"
       sodipodi:arg1="0.92394702"
       sodipodi:r2="39.753429"
       sodipodi:r1="35.778088"
       sodipodi:cy="32.61005"
       sodipodi:cx="39.708839"
       sodipodi:sides="64"
       id="path3822"
       style="opacity:0.75;fill:url(#radialGradient3824);fill-opacity:1;stroke:none;filter:url(#filter3820)"
       sodipodi:type="star" />
    <path
       sodipodi:type="star"
       style="opacity:0.75;fill:url(#radialGradient3828);fill-opacity:1;stroke:none;filter:url(#filter3794)"
       id="path3826"
       sodipodi:sides="64"
       sodipodi:cx="39.708839"
       sodipodi:cy="32.61005"
       sodipodi:r1="35.778088"
       sodipodi:r2="39.753429"
       sodipodi:arg1="0.92394702"
       sodipodi:arg2="0.97303441"
       inkscape:flatsided="false"
       inkscape:rounded="0"
       inkscape:randomized="0"
       d="m 61.271405,61.160485 0.810422,4.309641 -3.712683,-2.333618 0.3841,4.368324 -3.466071,-2.686288 -0.04592,4.384938 -3.186078,-3.013087 -0.475498,4.359323 -2.875403,-3.310869 -0.900496,4.291724 -2.537035,-3.576764 -1.316823,4.182794 -2.174234,-3.808214 -1.720468,4.033582 -1.790494,-4.00299 -2.107543,3.845524 -1.389511,-4.159212 -2.474322,3.620431 -0.975146,-4.275381 -2.817272,3.360472 -0.55139,-4.350375 -3.133089,3.068149 -0.122324,-4.383472 -3.418734,2.746279 0.307921,-4.374354 -3.671455,2.39796 0.7352,-4.323109 -3.888816,2.026548 1.155398,-4.23023 -4.068727,1.635619 1.56447,-4.096612 -4.2094541,1.228938 1.9584751,-3.92354 L 6.8487634,54.983037 9.182382,51.270354 4.8140575,51.654455 7.5003456,48.188384 3.1154073,48.142464 6.1284946,44.956385 1.7691719,44.480888 5.0800406,41.605485 0.78831625,40.704989 4.365081,38.167954 0.1822865,36.851131 3.990501,34.676897 -0.04308094,32.956429 3.9599082,31.165935 0.11438435,29.058392 4.2735971,27.668881 0.65316589,25.194559 4.9285468,24.219413 1.5680749,21.402141 5.9184497,20.850751 2.8503003,17.717661 7.2337725,17.595338 4.4874937,14.176604 8.861848,14.484525 6.4638878,10.81307 l 4.3231092,0.7352 -2.026548,-3.8888166 4.23023,1.1553988 -1.635619,-4.0687275 4.096611,1.5644702 -1.228937,-4.2094542 3.92354,1.958475 -0.810422,-4.30964147 3.712683,2.33361857 -0.3841,-4.3683246 3.466071,2.68628818 0.04592,-4.38493828 3.186078,3.01308726 0.475498,-4.35932266 2.875403,3.3108687 0.900496,-4.2917244 2.537035,3.5767648 1.316823,-4.1827945 2.174234,3.8082145 1.720467,-4.033582 1.790495,4.0029892 2.107543,-3.8455239 1.389511,4.1592128 2.474322,-3.6204312 0.975146,4.2753808 2.817272,-3.3604718 0.551389,4.3503747 3.13309,-3.0681493 0.122324,4.38347218 3.418734,-2.74627888 -0.307921,4.3743543 3.671455,-2.39796013 -0.735201,4.32310903 3.888817,-2.0265478 -1.155399,4.2302298 4.068728,-1.6356187 -1.56447,4.0966112 4.209454,-1.2289377 -1.958475,3.9235396 4.309641,-0.810421 -2.333618,3.712683 4.368324,-0.3841 -2.686288,3.466071 4.384939,0.04592 -3.013088,3.186079 4.359323,0.475498 -3.310869,2.875402 4.291725,0.900497 -3.576765,2.537035 4.182794,1.316823 -3.808214,2.174234 4.033582,1.720467 -4.002989,1.790494 3.845523,2.107544 -4.159212,1.389511 3.620431,2.474322 -4.275381,0.975146 3.360472,2.817272 -4.350375,0.551389 3.068149,3.13309 -4.383472,0.122323 2.746279,3.418735 -4.374354,-0.307921 2.39796,3.671454 -4.323109,-0.7352 2.026548,3.888817 -4.23023,-1.155399 1.635619,4.068728 -4.096612,-1.56447 1.228938,4.209454 z"
       transform="matrix(1.4079861,0,0,1.4079861,390.71646,942.44768)" />
    <path
       transform="matrix(1.4689645,0,0,1.4689645,261.41972,940.45917)"
       d="m 61.271405,61.160485 0.810422,4.309641 -3.712683,-2.333618 0.3841,4.368324 -3.466071,-2.686288 -0.04592,4.384938 -3.186078,-3.013087 -0.475498,4.359323 -2.875403,-3.310869 -0.900496,4.291724 -2.537035,-3.576764 -1.316823,4.182794 -2.174234,-3.808214 -1.720468,4.033582 -1.790494,-4.00299 -2.107543,3.845524 -1.389511,-4.159212 -2.474322,3.620431 -0.975146,-4.275381 -2.817272,3.360472 -0.55139,-4.350375 -3.133089,3.068149 -0.122324,-4.383472 -3.418734,2.746279 0.307921,-4.374354 -3.671455,2.39796 0.7352,-4.323109 -3.888816,2.026548 1.155398,-4.23023 -4.068727,1.635619 1.56447,-4.096612 -4.2094541,1.228938 1.9584751,-3.92354 L 6.8487634,54.983037 9.182382,51.270354 4.8140575,51.654455 7.5003456,48.188384 3.1154073,48.142464 6.1284946,44.956385 1.7691719,44.480888 5.0800406,41.605485 0.78831625,40.704989 4.365081,38.167954 0.1822865,36.851131 3.990501,34.676897 -0.04308094,32.956429 3.9599082,31.165935 0.11438435,29.058392 4.2735971,27.668881 0.65316589,25.194559 4.9285468,24.219413 1.5680749,21.402141 5.9184497,20.850751 2.8503003,17.717661 7.2337725,17.595338 4.4874937,14.176604 8.861848,14.484525 6.4638878,10.81307 l 4.3231092,0.7352 -2.026548,-3.8888166 4.23023,1.1553988 -1.635619,-4.0687275 4.096611,1.5644702 -1.228937,-4.2094542 3.92354,1.958475 -0.810422,-4.30964147 3.712683,2.33361857 -0.3841,-4.3683246 3.466071,2.68628818 0.04592,-4.38493828 3.186078,3.01308726 0.475498,-4.35932266 2.875403,3.3108687 0.900496,-4.2917244 2.537035,3.5767648 1.316823,-4.1827945 2.174234,3.8082145 1.720467,-4.033582 1.790495,4.0029892 2.107543,-3.8455239 1.389511,4.1592128 2.474322,-3.6204312 0.975146,4.2753808 2.817272,-3.3604718 0.551389,4.3503747 3.13309,-3.0681493 0.122324,4.38347218 3.418734,-2.74627888 -0.307921,4.3743543 3.671455,-2.39796013 -0.735201,4.32310903 3.888817,-2.0265478 -1.155399,4.2302298 4.068728,-1.6356187 -1.56447,4.0966112 4.209454,-1.2289377 -1.958475,3.9235396 4.309641,-0.810421 -2.333618,3.712683 4.368324,-0.3841 -2.686288,3.466071 4.384939,0.04592 -3.013088,3.186079 4.359323,0.475498 -3.310869,2.875402 4.291725,0.900497 -3.576765,2.537035 4.182794,1.316823 -3.808214,2.174234 4.033582,1.720467 -4.002989,1.790494 3.845523,2.107544 -4.159212,1.389511 3.620431,2.474322 -4.275381,0.975146 3.360472,2.817272 -4.350375,0.551389 3.068149,3.13309 -4.383472,0.122323 2.746279,3.418735 -4.374354,-0.307921 2.39796,3.671454 -4.323109,-0.7352 2.026548,3.888817 -4.23023,-1.155399 1.635619,4.068728 -4.096612,-1.56447 1.228938,4.209454 z"
       inkscape:randomized="0"
       inkscape:rounded="0"
       inkscape:flatsided="false"
       sodipodi:arg2="0.97303441"
       sodipodi:arg1="0.92394702"
       sodipodi:r2="39.753429"
       sodipodi:r1="35.778088"
       sodipodi:cy="32.61005"
       sodipodi:cx="39.708839"
       sodipodi:sides="64"
       id="path3830"
       style="opacity:0.5;fill:url(#radialGradient3832);fill-opacity:1;stroke:none;filter:url(#filter3824)"
       sodipodi:type="star" />
  </g>
</svg>
